<svg width="500" height="500" viewBox="0 0 500 500" fill="none" xmlns="http://www.w3.org/2000/svg">
<path d="M294.925 141.475C275.53 137.234 255.515 141.857 240.56 159.05C226.014 175.777 219.414 203.775 204.243 219.325C180.813 243.387 147.534 235.395 133.942 278.591C129.093 294.012 127.843 311.243 128.016 328.123C128.215 349.266 130.645 370.662 137.083 389.727C143.521 408.792 154.242 425.428 167.958 433.696C188.204 445.922 211.667 438.609 231.988 426.681C240.371 421.768 248.786 415.983 257.848 415.326C269.259 414.478 280.061 421.775 290.9 426.903C303.905 433.069 318.312 436.172 331.225 429.615C341.332 424.488 349.64 413.859 356.304 401.923C368.211 380.511 375.532 354.699 377.396 327.557C382.562 250.654 354.585 154.503 294.925 141.475Z" fill="#FF8119"/>
<path opacity="0.7" d="M211.754 439.123C231.307 443.372 251.485 438.74 266.562 421.512C281.227 404.752 287.881 376.698 303.176 361.117C326.797 337.006 360.347 345.015 374.05 301.732C378.938 286.281 380.199 269.015 380.025 252.101C379.824 230.915 377.374 209.477 370.884 190.373C364.393 171.27 353.585 154.601 339.756 146.317C319.345 134.066 295.691 141.394 275.204 153.346C266.752 158.269 258.269 164.065 249.133 164.724C237.629 165.573 226.739 158.261 215.811 153.124C202.7 146.945 188.176 143.836 175.157 150.406C164.968 155.543 156.592 166.194 149.874 178.153C137.87 199.608 130.489 225.471 128.61 252.668C123.401 329.724 151.606 426.068 211.754 439.123Z" fill="white"/>
<path d="M187.73 98.95V150.82H95.6099V163.01L50.6699 120.91L91.5799 82.78L95.6099 86.76V94.98H183.69L187.73 98.95Z" fill="#FF7A0E"/>
<g opacity="0.1">
<path opacity="0.1" d="M187.73 98.95V150.82H95.6099V163.01L50.6699 120.91L91.5799 82.78L95.6099 86.76V94.98H183.69L187.73 98.95Z" fill="black"/>
</g>
<path d="M183.69 94.98H91.5801V146.85H183.69V94.98Z" fill="#FF7A0E"/>
<path d="M91.5799 159.03V82.78L50.6699 120.91L91.5799 159.03Z" fill="#FF7A0E"/>
<path d="M408.43 163.01L404.39 159.03V150.82H316.31L312.28 146.84V94.98H404.39V82.78L449.33 124.89L408.43 163.01Z" fill="#37474F"/>
<path d="M312.28 146.84H404.39V94.9701L312.28 94.9701V146.84Z" fill="#282828"/>
<path d="M404.39 82.78V159.03L445.3 120.91L404.39 82.78Z" fill="#282828"/>
<path d="M280.61 360V360.14C280.61 360.14 280.61 360.2 280.61 360.24C280.61 360.28 280.61 360.4 280.56 360.51V360.69C280.528 360.818 280.505 360.949 280.49 361.08C280.49 361.17 280.49 361.26 280.44 361.36C280.39 361.46 280.37 361.78 280.32 362.02C280.27 362.26 280.17 362.83 280.09 363.31L279.64 365.75C279.59 366.01 279.54 366.29 279.49 366.58C279.44 366.87 279.35 367.36 279.27 367.77C279.19 368.18 279.11 368.69 279.02 369.18C278.96 369.52 278.89 369.87 278.83 370.23C278.64 371.3 278.44 372.44 278.21 373.66C278.205 373.69 278.205 373.72 278.21 373.75C277.97 375.11 277.71 376.57 277.43 378.1C277.36 378.5 277.28 378.9 277.2 379.3C277.12 379.7 277.04 380.14 276.97 380.56C276.97 380.82 276.88 381.09 276.82 381.36C276.44 383.487 276.03 385.74 275.59 388.12C275.44 388.92 275.3 389.73 275.15 390.55C274.86 392.15 274.56 393.79 274.25 395.48C274.17 395.87 274.1 396.26 274.04 396.66C273.587 399.107 273.123 401.653 272.65 404.3C272.59 404.57 272.55 404.84 272.5 405.11C272.27 406.35 272.04 407.6 271.82 408.88C271.79 408.978 271.77 409.078 271.76 409.18L271.43 411C270.99 413.44 270.537 415.937 270.07 418.49C269.95 419.12 269.83 419.76 269.72 420.41C269.49 421.7 269.25 423 269.01 424.31C268.71 425.94 268.41 427.58 268.11 429.25C267.81 430.92 267.51 432.59 267.2 434.25C267.04 435.1 266.89 435.95 266.73 436.8C266.55 437.8 266.36 438.8 266.18 439.87H179.75C190.41 395.58 199.4 359.87 199.4 359.87L280.61 360Z" fill="#37474F"/>
<path d="M267.55 370C263.223 393.333 258.85 416.667 254.43 440H253.23C257.82 416.61 262.55 393.26 267.23 369.9C267.3 369.68 267.58 369.77 267.55 370Z" fill="#37474F"/>
<path d="M280.6 360C280.6 360 280.6 360.05 280.6 360.14C280.6 360.23 280.6 360.2 280.6 360.24C280.6 360.28 280.6 360.4 280.55 360.51V360.69C280.518 360.818 280.495 360.949 280.48 361.08C280.48 361.17 280.48 361.26 280.43 361.36C280.38 361.46 280.35 361.78 280.31 362.02C280.27 362.26 280.16 362.83 280.08 363.31C279.94 364.02 279.8 364.83 279.63 365.75C279.58 366.01 279.53 366.29 279.48 366.58C279.43 366.87 279.34 367.36 279.26 367.77C279.18 368.18 279.1 368.69 279.01 369.18C278.95 369.52 278.88 369.87 278.82 370.23C278.62 371.3 278.42 372.44 278.2 373.66C278.195 373.69 278.195 373.72 278.2 373.75C277.95 375.11 277.69 376.55 277.41 378.08C277.33 378.48 277.26 378.89 277.19 379.3C277.12 379.71 277.03 380.14 276.96 380.56C276.9 380.82 276.86 381.09 276.81 381.36C276.42 383.48 276.01 385.74 275.58 388.12C275.43 388.92 275.29 389.73 275.14 390.55C274.84 392.15 274.54 393.79 274.24 395.48C274.16 395.87 274.09 396.26 274.03 396.66C273.57 399.12 273.107 401.667 272.64 404.3C272.58 404.57 272.54 404.84 272.49 405.11C272.26 406.35 272.03 407.6 271.81 408.88C271.78 408.978 271.76 409.078 271.75 409.18L271.42 411C270.967 413.44 270.513 415.937 270.06 418.49C269.94 419.12 269.82 419.76 269.71 420.41C269.47 421.7 269.24 423 269 424.31C268.7 425.94 268.4 427.58 268.1 429.25C267.8 430.92 267.49 432.59 267.19 434.25C267.03 435.1 266.88 435.95 266.72 436.8C266.54 437.8 266.35 438.8 266.16 439.87H222.79L219.32 404.35L219.2 403.09L219.06 401.73L218.38 394.78L217.79 388.78L215 360H280.6Z" fill="#282828"/>
<path d="M329.71 440H236.5C236.34 431.42 236.17 423.12 235.96 415.29C235.96 415.1 235.96 414.91 235.96 414.72C235.96 414.72 225.08 408.28 219.22 403.23C218.224 402.411 217.306 401.5 216.48 400.51C216.48 400.51 216.48 400.51 216.48 400.51C212.73 395.73 208.97 377.35 201.19 360.06H315.19C333.71 396 332.41 424.88 329.71 440Z" fill="#37474F"/>
<path d="M213.76 399.24C219.31 401.51 224.3 405 229.22 408.37C234.33 411.86 239.02 415.9 243.94 419.65C244.13 419.8 243.94 420.11 243.74 419.97C238.56 416.66 233.13 413.75 228 410.34C223 407.03 217.84 403.81 213.51 399.64C213.34 399.48 213.53 399.14 213.76 399.24Z" fill="#282828"/>
<path d="M213.06 367.17C213.72 370.72 214.58 374.24 215.35 377.77C216.07 381.08 216.6 384.45 217.47 387.77C218.184 390.938 219.795 393.833 222.11 396.11C223.41 397.32 224.84 398.39 226.23 399.49C226.97 400.09 227.78 400.66 228.56 401.27C228.45 400.8 228.37 400.27 228.29 399.84C228.05 398.49 227.82 397.15 227.6 395.84C227.1 392.84 226.6 389.84 226.16 386.84C225.26 380.95 224.43 375 223.16 369.17C223.147 369.121 223.154 369.069 223.179 369.025C223.204 368.98 223.246 368.948 223.295 368.935C223.344 368.922 223.397 368.929 223.441 368.954C223.485 368.979 223.517 369.021 223.53 369.07C225 374.85 226.62 380.57 227.89 386.4C228.52 389.25 230.76 403.4 230.89 404.4C231.02 405.4 231.07 406.47 231.11 407.5C231.25 408.552 231.25 409.618 231.11 410.67C231.09 410.717 231.057 410.758 231.014 410.786C230.972 410.815 230.921 410.83 230.87 410.83C230.819 410.83 230.769 410.815 230.726 410.786C230.683 410.758 230.65 410.717 230.63 410.67V410.67C230.204 409.691 229.902 408.663 229.73 407.61C229.47 406.61 229.24 405.61 229.06 404.55C229 404.19 228.95 403.81 228.9 403.43C227.51 402.58 226.21 401.43 224.9 400.53C223.59 399.63 222.08 398.53 220.75 397.41C218.301 395.341 216.534 392.58 215.68 389.49C214.817 386.15 214.255 382.74 214 379.3C213.55 375.3 213.23 371.3 212.67 367.3C212.66 367 213 366.93 213.06 367.17Z" fill="#282828"/>
<path d="M308.93 396C307.44 395.22 301.68 396.6 291.19 394.8C289.133 394.536 287.18 393.744 285.52 392.5C282.79 390.27 280.72 386.68 279.07 383.61C277.09 380.156 275.571 376.458 274.55 372.61C274.5 372.38 274.16 372.49 274.2 372.71C274.59 374.88 274.81 377.05 275.38 379.2C275.946 381.218 276.672 383.187 277.55 385.09C279.13 388.65 280.99 392.47 284.18 394.88C287.53 397.4 292.18 397.88 296.26 398.16C298.61 398.32 307.81 398.07 309.05 396.76C309.097 396.704 309.131 396.639 309.151 396.569C309.17 396.498 309.174 396.425 309.163 396.353C309.152 396.281 309.125 396.212 309.085 396.151C309.045 396.09 308.992 396.039 308.93 396V396Z" fill="#282828"/>
<path d="M304.89 365.21C305.95 368.21 306.98 371.21 307.83 374.29C308.68 377.37 309.55 380.4 310.33 383.47C311.849 389.619 313.038 395.844 313.89 402.12C314.763 408.379 315.197 414.691 315.19 421.01L315.11 425.76C315.05 427.34 314.88 428.91 314.77 430.5L314.62 432.88C314.53 433.66 314.4 434.45 314.29 435.23C314.06 436.8 313.85 438.38 313.65 439.97C315.417 433.809 316.458 427.463 316.75 421.06C317.048 414.643 316.753 408.213 315.87 401.85C315.01 395.498 313.673 389.221 311.87 383.07C310.083 376.92 307.747 370.942 304.89 365.21Z" fill="#263238"/>
<path d="M205.81 220.55C166.81 254.15 138.89 283.24 138.9 296.79C138.9 327.15 154.77 334.1 157.64 333.21C188 323.76 208.58 267 222.11 232.68C235.54 198.64 217 210.93 205.81 220.55Z" fill="#FFC4C0"/>
<path d="M150.39 268.42L197.82 295.31C197.82 295.31 218.49 253.08 225.82 227.7C233.15 202.32 222.88 202.88 199.99 222.31C177.1 241.74 150.39 268.42 150.39 268.42Z" fill="#FF7A0E"/>
<path d="M203.83 225.56C203.269 224.317 202.557 223.149 201.71 222.08L201.47 221.81C201.47 221.95 201.47 222.09 201.54 222.22C201.791 223.54 202.208 224.824 202.78 226.04C203.382 227.397 204.177 228.66 205.14 229.79C204.903 228.326 204.462 226.902 203.83 225.56V225.56ZM181.44 242C180.083 242.599 178.82 243.39 177.69 244.35C180.63 243.848 183.388 242.586 185.69 240.69C184.217 240.919 182.786 241.36 181.44 242ZM226.63 218.82C227.039 218.771 227.443 218.691 227.84 218.58C227.84 218.32 227.91 218.07 227.94 217.82C227.48 218.137 227.042 218.484 226.63 218.86V218.82ZM187.17 272.6C186.632 273.985 186.295 275.44 186.17 276.92C187.047 275.723 187.741 274.401 188.23 273C188.762 271.617 189.099 270.166 189.23 268.69C188.36 269.888 187.666 271.205 187.17 272.6ZM219.78 238.06C219.242 239.445 218.905 240.9 218.78 242.38C219.657 241.183 220.351 239.861 220.84 238.46C221.372 237.077 221.709 235.626 221.84 234.15C220.97 235.348 220.276 236.665 219.78 238.06V238.06ZM163.89 268C162.505 267.462 161.05 267.125 159.57 267C162.011 268.696 164.85 269.73 167.81 270C166.602 269.156 165.282 268.483 163.89 268ZM203.18 253.43C201.795 252.892 200.34 252.555 198.86 252.43C201.301 254.126 204.14 255.16 207.1 255.43C205.894 254.572 204.575 253.885 203.18 253.39V253.43ZM205.33 258.55C205.33 258.55 205.33 258.62 205.33 258.65H205.51C205.453 258.6 205.393 258.553 205.33 258.51V258.55Z" fill="white"/>
<path d="M160.38 261.25C178.63 274.08 196.38 282.52 199.93 284.65C200.09 284.75 200.24 284.47 200.06 284.37C196.47 282.47 177.06 269.88 160.53 260.95C160.34 260.85 160.21 261.13 160.38 261.25Z" fill="#263238"/>
<path opacity="0.1" d="M184.87 288L197.82 295.34C197.82 295.34 218.49 253.11 225.82 227.73C228.51 218.38 228.82 212.55 226.99 209.89L184.87 288Z" fill="black"/>
<path d="M190.82 379.16H325.72C325.72 379.16 305.11 250.44 255.39 206.42C249.25 200.98 235.39 202.22 226.39 206.71C223.16 208.32 211.57 224.53 208.26 239.87C204.95 255.21 190.46 378.7 190.82 379.16Z" fill="#FF7A0E"/>
<path d="M266.65 242.56C269.086 244.274 271.926 245.325 274.89 245.61C272.454 243.896 269.615 242.845 266.65 242.56ZM205.32 258.61H205.5C205.446 258.567 205.389 258.527 205.33 258.49C205.33 258.49 205.32 258.58 205.32 258.61ZM236.07 277.82C238.506 279.534 241.346 280.585 244.31 280.87C243.105 280.005 241.786 279.312 240.39 278.81C239.005 278.275 237.55 277.942 236.07 277.82V277.82ZM254.4 333.72C255.602 334.592 256.922 335.289 258.32 335.79C259.705 336.328 261.16 336.665 262.64 336.79C260.208 335.068 257.367 334.013 254.4 333.73V333.72ZM285.27 294.72C287.706 296.434 290.546 297.485 293.51 297.77C292.305 296.905 290.986 296.212 289.59 295.71C288.203 295.185 286.749 294.862 285.27 294.75V294.72ZM313 372.48C315.432 374.202 318.273 375.257 321.24 375.54C318.802 373.829 315.964 372.775 313 372.48V372.48ZM253.41 367.61C255.842 369.332 258.683 370.387 261.65 370.67C260.448 369.801 259.128 369.108 257.73 368.61C256.331 368.063 254.858 367.726 253.36 367.61H253.41ZM191.25 374.82C192.056 375.257 192.892 375.638 193.75 375.96C195.135 376.497 196.59 376.834 198.07 376.96C196.867 376.093 195.547 375.4 194.15 374.9C193.237 374.558 192.297 374.29 191.34 374.1C191.25 374.34 191.23 374.59 191.2 374.82H191.25ZM214.91 332.2C217.346 333.914 220.186 334.965 223.15 335.25C221.948 334.381 220.628 333.688 219.23 333.19C217.83 332.646 216.358 332.312 214.86 332.2H214.91ZM256.08 227C257.794 224.564 258.845 221.725 259.13 218.76C258.261 219.963 257.568 221.282 257.07 222.68C256.531 224.064 256.197 225.519 256.08 227V227ZM285.77 378C287.484 375.564 288.535 372.725 288.82 369.76C287.949 370.961 287.256 372.281 286.76 373.68C286.221 375.064 285.887 376.519 285.77 378V378ZM291.69 340.41C292.566 339.21 293.263 337.89 293.76 336.49C294.297 335.108 294.634 333.657 294.76 332.18C293.037 334.608 291.982 337.446 291.7 340.41H291.69ZM240.36 318.07C242.056 315.629 243.09 312.79 243.36 309.83C242.493 311.034 241.8 312.353 241.3 313.75C240.781 315.144 240.464 316.606 240.36 318.09V318.07ZM258.52 269.88C260.242 267.448 261.297 264.607 261.58 261.64C260.708 262.842 260.011 264.162 259.51 265.56C258.974 266.952 258.64 268.413 258.52 269.9V269.88ZM232.7 379.16H233.9C234.305 377.987 234.557 376.767 234.65 375.53C233.842 376.648 233.186 377.869 232.7 379.16ZM195.43 351.85C196.306 350.65 197.003 349.33 197.5 347.93C198.033 346.547 198.369 345.096 198.5 343.62C196.78 346.05 195.725 348.887 195.44 351.85H195.43ZM218.79 242.38C219.667 241.182 220.361 239.861 220.85 238.46C221.382 237.077 221.719 235.626 221.85 234.15C220.127 236.578 219.072 239.416 218.79 242.38ZM226.63 218.86C229.57 218.358 232.328 217.096 234.63 215.2C233.165 215.431 231.74 215.872 230.4 216.51C229.039 217.111 227.769 217.902 226.63 218.86V218.86ZM270.77 319.92C272.235 319.684 273.659 319.243 275 318.61C276.36 318.008 277.627 317.213 278.76 316.25C275.822 316.765 273.067 318.029 270.76 319.92H270.77ZM305.67 355.07C308.61 354.568 311.368 353.306 313.67 351.41C310.73 351.912 307.972 353.174 305.67 355.07ZM214.45 363.83C217.39 363.328 220.148 362.066 222.45 360.17C220.985 360.401 219.56 360.842 218.22 361.48C216.859 362.081 215.589 362.872 214.45 363.83V363.83ZM217.35 308.09C218.815 307.851 220.239 307.406 221.58 306.77C222.939 306.175 224.202 305.383 225.33 304.42C222.388 304.92 219.628 306.186 217.33 308.09H217.35ZM226.63 260.76C229.57 260.258 232.328 258.996 234.63 257.1C231.69 257.602 228.932 258.864 226.63 260.76V260.76ZM283.63 267.76C284.136 270.699 285.397 273.456 287.29 275.76C286.784 272.821 285.523 270.064 283.63 267.76ZM238.82 345.45C239.056 346.915 239.497 348.339 240.13 349.68C240.732 351.037 241.527 352.3 242.49 353.43C241.979 350.491 240.714 347.735 238.82 345.43V345.45ZM211.39 276.88C211.621 278.346 212.062 279.77 212.7 281.11C213.301 282.468 214.092 283.734 215.05 284.87C214.55 281.929 213.288 279.171 211.39 276.87V276.88ZM272.71 349.44C273.216 352.379 274.477 355.136 276.37 357.44C276.139 355.974 275.698 354.55 275.06 353.21C274.459 351.849 273.667 350.579 272.71 349.44V349.44ZM307.83 311.89C308.061 313.356 308.502 314.78 309.14 316.12C309.741 317.478 310.532 318.745 311.49 319.88C311.259 318.411 310.818 316.983 310.18 315.64C309.575 314.287 308.784 313.024 307.83 311.89V311.89ZM260.05 290.89C260.286 292.355 260.727 293.779 261.36 295.12C261.965 296.476 262.756 297.742 263.71 298.88C263.484 297.41 263.042 295.981 262.4 294.64C261.797 293.295 261.005 292.043 260.05 290.92V290.89ZM242.47 236.1C242.706 237.565 243.147 238.989 243.78 240.33C244.382 241.687 245.177 242.95 246.14 244.08C245.64 241.137 244.375 238.378 242.47 236.08V236.1Z" fill="white"/>
<path d="M272.75 217.09C314.21 247.64 344.22 274.54 345.22 288.09C347.48 318.37 332.22 326.5 329.28 325.83C298.28 318.7 273.5 263.62 257.42 230.45C241.45 197.48 260.88 208.34 272.75 217.09Z" fill="#FFC4C0"/>
<path d="M331.62 260.63L286.36 291C286.36 291 262.57 250.45 253.36 225.7C244.15 200.95 254.43 200.7 278.72 218.37C303.01 236.04 331.62 260.63 331.62 260.63Z" fill="#FF7A0E"/>
<path d="M271 243.55C269.615 243.012 268.16 242.675 266.68 242.55C269.116 244.264 271.955 245.315 274.92 245.6C273.718 244.733 272.398 244.042 271 243.55V243.55ZM257.1 222.72C256.557 224.103 256.22 225.559 256.1 227.04C257.814 224.604 258.865 221.765 259.15 218.8C258.274 220.001 257.574 221.321 257.07 222.72H257.1ZM320.69 261.46C320.147 262.843 319.81 264.299 319.69 265.78C321.404 263.344 322.455 260.505 322.74 257.54C321.864 258.741 321.164 260.061 320.66 261.46H320.69ZM285.48 223.38C285.29 223.8 285.11 224.22 284.95 224.64C284.412 226.025 284.075 227.48 283.95 228.96C284.82 227.745 285.511 226.412 286 225C286.12 224.673 286.23 224.34 286.33 224L285.48 223.38ZM298.9 249.48C297.543 250.079 296.28 250.87 295.15 251.83C298.09 251.328 300.848 250.066 303.15 248.17C301.667 248.396 300.225 248.838 298.87 249.48H298.9ZM286.01 271.48C285.412 270.12 284.62 268.854 283.66 267.72C284.166 270.659 285.427 273.416 287.32 275.72C287.085 274.264 286.64 272.849 286 271.52L286.01 271.48Z" fill="white"/>
<path d="M321.12 254.25C303.9 268.41 286.83 278.17 283.46 280.56C283.3 280.67 283.13 280.4 283.3 280.29C286.74 278.12 305.17 264.1 320.95 253.96C321.13 253.84 321.29 254.11 321.12 254.25Z" fill="#263238"/>
<path d="M289.26 289C288.315 289.442 287.396 289.939 286.51 290.49C281.28 281.8 282.26 283.81 276.95 275.16C274.35 270.927 271.75 266.69 269.15 262.45C266.45 258.04 263.98 253.45 261.04 249.17C260.96 249.04 260.79 249.17 260.85 249.29C262.68 253.52 265.04 257.57 267.29 261.62C266.81 261 266.36 260.36 265.84 259.77C264.69 258.45 263.56 257.12 262.52 255.71C262.36 255.49 262 255.71 262.16 255.93C263.16 257.27 264.05 258.67 264.93 260.09C265.81 261.51 266.79 262.86 267.78 264.21C268.77 265.56 269.78 266.75 270.78 267.99L271.16 268.45C272.6 270.97 274 273.52 275.49 276.02C280.73 284.76 285.95 291.55 286.11 291.5C287.26 290.837 288.357 290.084 289.39 289.25C289.53 289.09 289.39 288.93 289.26 289Z" fill="#263238"/>
<path d="M324.52 322.89C319.13 310.29 314.46 293.03 333.77 242.28C336.44 235.28 391.08 240.77 388.62 248.42C385.51 258.05 371.36 294.76 369.98 297.31C358.4 318.85 328.17 331.44 324.52 322.89Z" fill="#FFC4C0"/>
<path d="M321.08 312.59C320.7 308.48 320.62 304.38 320.64 300.28C320.64 298.28 320.72 296.19 320.81 294.15C320.9 292.11 321.17 290.15 321.45 288.08C322.05 284.08 322.79 280 323.6 275.97C324.41 271.94 325.27 267.92 326.33 263.97C324.801 267.812 323.528 271.75 322.52 275.76C321.52 279.76 320.63 283.76 320 287.91C319.652 289.967 319.435 292.045 319.35 294.13C319.26 296.2 319.29 298.28 319.35 300.35C319.502 304.479 320.082 308.581 321.08 312.59V312.59Z" fill="#263238"/>
<path d="M345.38 221.44C337.31 228.34 331.27 248.54 331.27 248.54L383.56 262.54C383.56 262.54 390.73 246.94 397.87 241.26C399.95 239.61 410.45 230.53 421.21 222.37C433.41 213.12 445.03 201.85 445.36 200.03C445.99 196.53 440.75 193.75 431.06 198.03C421.37 202.31 403.93 214 402.7 214.37C402.275 214.46 401.844 214.52 401.41 214.55V214.55C400.85 214.44 389.67 204.37 383.01 205.79C376.35 207.21 346.36 219.76 345.38 221.44Z" fill="#FFC4C0"/>
<path d="M388.39 229.21C388.39 229.21 413.68 224.04 417.39 220.14C421.1 216.24 446.86 196.25 447.56 192.76C448.26 189.27 442.95 186.48 433.26 190.76C423.57 195.04 406.14 206.69 404.9 207.11C403.66 207.53 380.95 208.41 378.9 209.11C376.85 209.81 388.39 229.21 388.39 229.21Z" fill="#FFC4C0"/>
<path d="M403 228.31C405.58 227.15 408.11 225.88 410.64 224.62C411.9 223.97 413.15 223.31 414.39 222.62C415.01 222.27 415.63 221.93 416.24 221.55C416.55 221.38 416.85 221.17 417.16 220.97C417.469 220.756 417.763 220.523 418.04 220.27C422.35 216.66 426.67 213 430.96 209.33C435.25 205.66 439.5 201.98 443.7 198.14C444.765 197.139 445.702 196.011 446.49 194.78C446.889 194.159 447.202 193.486 447.42 192.78C447.675 192.024 447.675 191.206 447.42 190.45C447.261 190.086 447.032 189.757 446.745 189.483C446.459 189.208 446.12 188.993 445.75 188.85C445.064 188.582 444.336 188.434 443.6 188.41C442.172 188.358 440.745 188.51 439.36 188.86C440.753 188.674 442.163 188.657 443.56 188.81C444.234 188.886 444.89 189.075 445.5 189.37C445.784 189.499 446.038 189.684 446.248 189.914C446.458 190.145 446.619 190.415 446.72 190.71C447.08 191.87 446.45 193.21 445.72 194.3C444.917 195.404 443.987 196.411 442.95 197.3C438.63 200.87 434.29 204.53 430.01 208.2C425.73 211.87 421.46 215.58 417.3 219.44C416.261 220.342 415.135 221.139 413.94 221.82C412.75 222.57 411.53 223.28 410.32 224L403 228.31Z" fill="#263238"/>
<path d="M383.41 226.18C383.41 226.18 411.1 220.4 414.8 216.51C418.5 212.62 444.26 192.61 444.97 189.13C445.68 185.65 440.35 182.84 430.67 187.13C420.99 191.42 403.54 203.05 402.3 203.48C401.06 203.91 379.23 207.03 377.16 207.74C375.09 208.45 383.41 226.18 383.41 226.18Z" fill="#FFC4C0"/>
<path d="M397.91 227.05C401 225.48 404.03 223.79 407.07 222.05C408.57 221.18 410.07 220.3 411.54 219.38C412.28 218.93 413.02 218.46 413.75 217.96C414.483 217.461 415.181 216.913 415.84 216.32C421.093 211.82 426.327 207.283 431.54 202.71L439.31 195.8L441.24 194.05C441.913 193.464 442.547 192.836 443.14 192.17C443.748 191.478 444.265 190.712 444.68 189.89C445.16 189.011 445.342 188.001 445.2 187.01C445.097 186.471 444.832 185.975 444.44 185.59C444.071 185.241 443.631 184.975 443.15 184.81C442.266 184.526 441.339 184.394 440.41 184.42C438.644 184.469 436.89 184.717 435.18 185.16C431.788 186.011 428.57 187.446 425.67 189.4C428.682 187.71 431.948 186.518 435.34 185.87C437.004 185.52 438.7 185.345 440.4 185.35C441.209 185.355 442.011 185.501 442.77 185.78C443.098 185.877 443.393 186.061 443.624 186.313C443.855 186.565 444.012 186.875 444.08 187.21C444.138 187.953 443.96 188.695 443.57 189.33C443.181 190.05 442.708 190.721 442.16 191.33C441.06 192.52 439.66 193.62 438.38 194.77L430.55 201.6C425.35 206.18 420.15 210.76 415.04 215.45C414.435 216.044 413.79 216.595 413.11 217.1C412.43 217.6 411.72 218.1 411.01 218.58C409.58 219.58 408.13 220.49 406.67 221.42L397.91 227.05Z" fill="#263238"/>
<path d="M383.79 227C383.79 227 406.66 216.36 410.1 212.73C413.54 209.1 431.99 196.55 432.65 193.31C433.31 190.07 428.35 187.46 419.33 191.45C410.31 195.44 399.62 200.21 398.47 200.61C397.32 201.01 379.09 207.08 377.16 207.74C375.23 208.4 383.79 227 383.79 227Z" fill="#FFC4C0"/>
<path d="M390.76 226.05C394.68 223.92 398.57 221.72 402.46 219.54C404.46 218.45 406.34 217.34 408.27 216.21L409.72 215.36C410.214 215.057 410.688 214.723 411.14 214.36C412.05 213.68 412.91 212.98 413.78 212.26C417.21 209.39 420.58 206.45 423.84 203.39C425.47 201.87 427.09 200.32 428.68 198.74C429.47 197.95 430.26 197.15 431.03 196.32C431.844 195.491 432.587 194.594 433.25 193.64C433.455 193.33 433.598 192.982 433.668 192.616C433.738 192.25 433.736 191.874 433.66 191.51C433.451 190.794 432.975 190.185 432.33 189.81C431.259 189.203 430.067 188.841 428.84 188.75C426.494 188.494 424.122 188.816 421.93 189.69C417.77 191.39 413.69 193.17 409.59 194.94C405.49 196.71 401.36 198.53 397.38 200.34C395.33 201.15 393.22 201.91 391.13 202.67C389.04 203.43 386.95 204.26 384.88 205.12C389.24 204.06 393.52 202.86 397.82 201.53L410.14 196.22C414.24 194.48 418.36 192.72 422.48 191.08C424.449 190.292 426.579 189.987 428.69 190.19C429.695 190.259 430.673 190.542 431.56 191.02C431.737 191.091 431.894 191.203 432.02 191.347C432.146 191.491 432.236 191.662 432.284 191.846C432.332 192.031 432.335 192.225 432.295 192.411C432.254 192.597 432.17 192.772 432.05 192.92C431.443 193.79 430.775 194.616 430.05 195.39C429.31 196.2 428.53 197 427.75 197.79C426.2 199.37 424.6 200.92 422.98 202.45C419.74 205.5 416.51 208.57 413.15 211.45C412.31 212.18 411.47 212.9 410.6 213.59C409.728 214.255 408.816 214.866 407.87 215.42L402.17 218.93L390.76 226.05Z" fill="#263238"/>
<path d="M159.7 330.86C165.7 318.57 171.31 301.58 154.7 249.86C152.4 242.71 97.5498 245.34 99.6098 253.1C102.2 262.89 114.39 300.29 115.61 302.91C126.07 325 155.6 339.2 159.7 330.86Z" fill="#FFC4C0"/>
<path d="M163.67 320.76C164.871 316.793 165.652 312.71 166 308.58C166.18 306.52 166.33 304.45 166.35 302.37C166.369 300.286 166.262 298.202 166.03 296.13C165.611 292.01 164.98 287.915 164.14 283.86C163.351 279.794 162.292 275.785 160.97 271.86C161.81 275.86 162.45 279.96 163.06 284.02C163.67 288.08 164.18 292.16 164.56 296.24C164.74 298.24 164.9 300.31 164.89 302.33C164.88 304.35 164.83 306.42 164.73 308.46C164.57 312.58 164.26 316.67 163.67 320.76Z" fill="#263238"/>
<path d="M147.15 227.65C153.75 236 156 254 156 254L101.79 260.66C101.79 260.66 97.7299 243.98 91.7899 237.04C90.0699 235.04 81.4899 224.11 72.4999 214.04C62.2899 202.62 53.0399 189.34 53.0699 187.49C53.1199 183.94 58.7899 182.21 67.4799 188.27C76.1699 194.33 91.0699 209.09 92.1899 209.74C92.5927 209.909 93.0071 210.05 93.4299 210.16V210.16C94.0099 210.16 106.91 202.41 113.17 205.08C119.43 207.75 146.52 225.82 147.15 227.65Z" fill="#FFC4C0"/>
<path d="M103.45 227.05C103.45 227.05 79.62 217.14 76.74 212.6C73.86 208.06 52.39 183.52 52.36 180C52.33 176.48 58.09 174.71 66.78 180.77C75.47 186.83 90.36 201.59 91.49 202.25C92.62 202.91 114.75 208.1 116.64 209.2C118.53 210.3 103.45 227.05 103.45 227.05Z" fill="#FFC4C0"/>
<path d="M89.2399 223.37C86.9299 221.73 84.6999 220 82.4499 218.28C81.3399 217.41 80.24 216.51 79.15 215.6C78.61 215.14 78.07 214.68 77.54 214.2C77.27 213.97 77.01 213.7 76.75 213.45C76.4912 213.18 76.2474 212.897 76.0199 212.6C72.4799 208.23 68.94 203.81 65.43 199.39C61.92 194.97 58.43 190.53 55.06 185.96C54.2246 184.773 53.5331 183.49 53 182.14C52.7249 181.445 52.5499 180.714 52.4799 179.97C52.3791 179.177 52.5406 178.373 52.9399 177.68C53.1716 177.347 53.4682 177.065 53.812 176.85C54.1557 176.635 54.5394 176.492 54.9399 176.43C55.6646 176.305 56.4053 176.305 57.13 176.43C58.538 176.656 59.9078 177.077 61.2 177.68C59.8683 177.236 58.4887 176.95 57.09 176.83C56.4179 176.774 55.7412 176.835 55.09 177.01C54.7862 177.079 54.5003 177.211 54.2506 177.397C54.0009 177.583 53.7928 177.819 53.6399 178.09C53.0599 179.16 53.42 180.6 53.95 181.81C54.4933 183.044 55.1814 184.209 56 185.28C59.55 189.61 63.11 194.04 66.61 198.46C70.11 202.88 73.61 207.33 76.94 211.92C77.7815 213.011 78.7295 214.016 79.7699 214.92C80.7699 215.92 81.86 216.81 82.91 217.75L89.2399 223.37Z" fill="#263238"/>
<path d="M108.92 225C108.92 225 82.8402 214 79.9202 209.5C77.0002 205 55.5702 180.41 55.5402 176.86C55.5102 173.31 61.2702 171.57 69.9602 177.63C78.6502 183.69 93.5402 198.45 94.6702 199.1C95.8002 199.75 116.67 207 118.54 208.1C120.41 209.2 108.92 225 108.92 225Z" fill="#FFC4C0"/>
<path d="M94.5199 223.11C91.7799 220.97 89.1299 218.74 86.5199 216.5C85.2099 215.36 83.9099 214.21 82.6399 213.03C81.9999 212.43 81.3599 211.83 80.7399 211.21C80.117 210.582 79.5358 209.914 78.9999 209.21C74.7132 203.783 70.4466 198.327 66.1999 192.84L59.8899 184.58L58.3299 182.49C57.7809 181.788 57.2798 181.049 56.8299 180.28C56.3627 179.487 55.9998 178.636 55.7499 177.75C55.4356 176.799 55.4356 175.771 55.7499 174.82C55.9529 174.314 56.3008 173.879 56.7499 173.57C57.1817 173.299 57.6655 173.122 58.1699 173.05C59.0878 172.94 60.0179 172.987 60.9199 173.19C62.646 173.578 64.3232 174.158 65.9199 174.92C69.0862 176.411 71.9691 178.441 74.4399 180.92C71.8098 178.685 68.8345 176.892 65.6299 175.61C64.0638 174.945 62.4312 174.449 60.7599 174.13C59.9626 173.991 59.1472 173.991 58.3499 174.13C58.0089 174.163 57.6833 174.288 57.4083 174.493C57.1334 174.697 56.9195 174.973 56.7899 175.29C56.5964 176.005 56.6279 176.763 56.8799 177.46C57.1307 178.231 57.4661 178.972 57.8799 179.67C58.7299 181.05 59.8799 182.4 60.9399 183.77L67.3099 191.98C71.5399 197.47 75.7699 202.98 79.8899 208.54C80.366 209.242 80.8906 209.911 81.4599 210.54C82.0399 211.17 82.6399 211.79 83.2499 212.4C84.4599 213.62 85.7099 214.82 86.9599 216.02L94.5199 223.11Z" fill="#263238"/>
<path d="M108.39 225.76C108.39 225.76 87.9699 210.94 85.2899 206.76C82.6099 202.58 66.8999 186.66 66.8799 183.35C66.8599 180.04 72.2099 178.42 80.2999 184.07C88.3899 189.72 97.9999 196.44 98.9999 197.05C99.9999 197.66 116.8 207.05 118.56 208.12C120.32 209.19 108.39 225.76 108.39 225.76Z" fill="#FFC4C0"/>
<path d="M101.73 223.5C98.2802 220.65 94.8902 217.75 91.4902 214.86C89.7902 213.42 88.1002 211.963 86.4202 210.49L85.1602 209.37C84.7494 208.99 84.362 208.586 84.0002 208.16C83.2402 207.32 82.5302 206.46 81.8202 205.59C79.0002 202.12 76.2502 198.59 73.6402 194.96C72.3302 193.15 71.0302 191.32 69.7802 189.47C69.1502 188.54 68.5302 187.6 67.9302 186.64C67.2896 185.67 66.7341 184.646 66.2702 183.58C66.1263 183.236 66.0522 182.868 66.0522 182.495C66.0522 182.122 66.1263 181.754 66.2702 181.41C66.6018 180.759 67.1656 180.256 67.8502 180C69.0181 179.611 70.2569 179.481 71.4802 179.62C73.8302 179.823 76.0954 180.595 78.0802 181.87C81.8402 184.33 85.5002 186.87 89.1902 189.39C92.8802 191.91 96.5802 194.48 100.19 197.02C102.05 198.21 103.98 199.35 105.88 200.51C107.78 201.67 109.68 202.86 111.54 204.1C107.47 202.23 103.54 200.24 99.5402 198.1L88.4602 190.53C84.7602 188.04 81.0602 185.53 77.3302 183.12C75.5424 181.988 73.5086 181.302 71.4002 181.12C70.3939 180.985 69.3702 181.07 68.4002 181.37C68.2134 181.407 68.0378 181.487 67.8876 181.604C67.7373 181.721 67.6166 181.872 67.5349 182.044C67.4533 182.216 67.4131 182.404 67.4174 182.595C67.4218 182.785 67.4707 182.972 67.5602 183.14C67.9927 184.118 68.5009 185.061 69.0802 185.96C69.6602 186.9 70.2602 187.83 70.8802 188.75C72.1002 190.6 73.3802 192.43 74.6702 194.24C77.2602 197.86 79.8502 201.49 82.5902 205C83.2702 205.87 83.9602 206.74 84.6802 207.58C85.407 208.386 86.1817 209.147 87.0002 209.86L91.9202 214.4L101.73 223.5Z" fill="#263238"/>
<path d="M258.85 213.65C255.029 220.719 249.44 226.676 242.63 230.94C239.375 233.091 235.636 234.397 231.75 234.74C229.729 234.948 227.694 234.518 225.93 233.51C224.293 232.321 222.991 230.73 222.15 228.89C221.146 226.801 220.448 224.578 220.08 222.29C219.639 219.698 219.379 217.078 219.3 214.45C219.3 214.35 219.15 214.37 219.15 214.45C219.23 216.94 219.1 219.45 219.36 221.91C219.543 224.097 220.007 226.251 220.74 228.32C221.443 230.278 222.554 232.064 224 233.56C225.52 235.03 227.519 235.903 229.63 236.02C233.77 236.221 237.877 235.198 241.44 233.08C245.046 231.074 248.318 228.521 251.14 225.51C254.397 222.036 257.071 218.058 259.06 213.73C259.073 213.716 259.082 213.698 259.086 213.679C259.091 213.661 259.091 213.641 259.086 213.622C259.082 213.603 259.073 213.586 259.06 213.571C259.047 213.557 259.031 213.546 259.013 213.539C258.995 213.532 258.975 213.529 258.956 213.532C258.936 213.534 258.918 213.541 258.902 213.552C258.886 213.563 258.873 213.577 258.864 213.595C258.855 213.612 258.85 213.631 258.85 213.65Z" fill="#263238"/>
<path d="M228.33 229.22C236.03 231.37 249.85 220.03 255.51 210.61C255.89 209.96 255.16 202.97 254.67 194.42C254.4 189.23 254.21 183.42 254.42 178.16C254.47 177.08 220.93 184.89 220.93 184.89C220.93 184.89 223.75 196.1 223.32 205.32C223.285 206.049 223.178 206.772 223 207.48C223 207.58 223 207.7 222.94 207.84C222.1 211.94 220.89 227.14 228.33 229.22Z" fill="#FFC4C0"/>
<path d="M226.34 208.15C225.204 208.141 224.07 208.037 222.95 207.84C222.962 207.719 222.982 207.599 223.01 207.48C223.184 206.772 223.288 206.048 223.32 205.32C223.74 196.11 220.93 184.89 220.93 184.89C220.93 184.89 248.16 178.55 253.52 178.08C252.25 184.15 245.92 208.51 226.34 208.15Z" fill="#263238"/>
<path d="M262 140.78C264.23 152.88 254.2 185.95 245 192.54C231.69 202.08 211.83 200.87 204.21 185.32C196.82 170.24 210.65 127.37 220.73 121.58C235.56 113.06 258.67 122.9 262 140.78Z" fill="#FFC4C0"/>
<path d="M231.49 155.9C231.49 155.82 231.63 156.07 231.6 156.15C230.79 158.34 230.25 160.98 232 162.38C232.06 162.38 232 162.53 231.94 162.49C229.62 161.34 230.38 157.85 231.49 155.9Z" fill="#263238"/>
<path d="M234.23 154.25C237.87 155.15 235.79 162.38 232.42 161.54C229.05 160.7 231.17 153.49 234.23 154.25Z" fill="#263238"/>
<path d="M218 151.53C218 151.44 217.8 151.59 217.77 151.68C217.2 153.94 216.16 156.43 213.93 156.59C213.86 156.59 213.83 156.71 213.93 156.72C216.43 157.08 217.77 153.76 218 151.53Z" fill="#263238"/>
<path d="M216.63 148.62C213.11 147.31 210.75 154.45 214.01 155.62C217.27 156.79 219.58 149.72 216.63 148.62Z" fill="#263238"/>
<path d="M237.44 154.85C236.472 154.502 235.524 154.101 234.6 153.65C233.538 153.366 232.6 152.741 231.93 151.87C231.773 151.556 231.726 151.199 231.794 150.855C231.863 150.511 232.044 150.2 232.31 149.97C233.49 149.04 234.97 149.29 236.31 149.81C237.665 150.285 238.795 151.247 239.48 152.51C239.623 152.808 239.675 153.141 239.631 153.468C239.586 153.795 239.447 154.102 239.23 154.351C239.013 154.6 238.728 154.78 238.409 154.869C238.091 154.957 237.754 154.951 237.44 154.85V154.85Z" fill="#263238"/>
<path d="M216.31 140.91C217.337 141.005 218.369 141.045 219.4 141.03C220.481 141.222 221.595 141.054 222.57 140.55C222.845 140.33 223.04 140.026 223.123 139.684C223.206 139.342 223.173 138.982 223.03 138.66C222.35 137.32 220.91 136.92 219.49 136.83C218.066 136.687 216.641 137.079 215.49 137.93C215.237 138.137 215.049 138.414 214.949 138.725C214.85 139.037 214.843 139.371 214.93 139.687C215.017 140.003 215.194 140.286 215.439 140.503C215.684 140.72 215.986 140.862 216.31 140.91V140.91Z" fill="#263238"/>
<path d="M222.53 178.78C221.889 179.281 221.093 179.542 220.28 179.52C219.467 179.252 218.718 178.82 218.08 178.25C218.02 178.2 217.92 178.25 217.95 178.33C218.141 178.851 218.468 179.311 218.897 179.662C219.326 180.014 219.842 180.245 220.39 180.33C220.876 180.346 221.355 180.219 221.77 179.965C222.184 179.711 222.514 179.34 222.72 178.9C222.79 178.83 222.63 178.73 222.53 178.78Z" fill="#263238"/>
<path d="M224.35 174.9C221.8 172.9 218 172.19 215.57 171.79C215.32 171.68 215.23 171.09 215.26 170.79C215.26 170.7 216.82 166.03 216.82 166.03C216.09 166.16 212.45 166.66 212.77 165.78C215.41 158.44 218.35 150.28 222.53 143.54C222.56 143.5 222.603 143.472 222.652 143.46C222.7 143.448 222.752 143.453 222.797 143.474C222.843 143.495 222.879 143.53 222.902 143.575C222.924 143.62 222.93 143.671 222.92 143.72C220.66 150.87 217.16 157.58 214.77 164.72C216.073 164.535 217.396 164.535 218.7 164.72C218.92 164.86 216.79 169.67 216.64 170.46C216.64 170.46 221.64 170.46 224.64 173.92C225.46 174.82 225.56 175.84 224.35 174.9Z" fill="#263238"/>
<path d="M213 128.56C222.58 140.17 242.47 132.48 242.47 132.48C242.739 135.378 243.937 138.111 245.885 140.273C247.832 142.435 250.426 143.911 253.28 144.48C253.28 144.48 249.83 165.36 255.16 166.85C263.29 169.13 273.71 142.3 272.71 136.15C271.71 130 265.22 126.64 265.22 126.64C265.22 126.64 265.92 122.29 262 117.02C257.68 111.18 236.91 111.4 236.91 111.4C236.548 108.536 235.521 105.796 233.91 103.4C233.527 102.807 233.027 102.298 232.441 101.904C231.855 101.51 231.196 101.239 230.502 101.107C229.808 100.975 229.095 100.986 228.406 101.137C227.716 101.289 227.064 101.579 226.49 101.99C227.08 103.774 227.258 105.668 227.01 107.53C226.27 113.72 221.44 112.33 223.01 106.98C223.529 104.951 224.761 103.176 226.48 101.98C225.11 97.79 221.54 95.53 218.64 96.73C213.34 98.9 205 118.91 213 128.56Z" fill="#263238"/>
<path d="M256.22 138.42C256.238 138.389 256.261 138.362 256.289 138.34C256.318 138.319 256.35 138.303 256.384 138.293C256.419 138.284 256.454 138.282 256.49 138.286C256.525 138.291 256.559 138.302 256.59 138.32C256.621 138.338 256.648 138.361 256.67 138.39C256.691 138.418 256.707 138.45 256.717 138.484C256.726 138.519 256.728 138.554 256.724 138.59C256.719 138.625 256.708 138.659 256.69 138.69C254.66 142.474 253.085 146.485 252 150.64C251.09 154.79 250.31 165.64 256.51 166.15C256.564 166.161 256.612 166.191 256.647 166.233C256.682 166.276 256.701 166.33 256.701 166.385C256.701 166.44 256.682 166.494 256.647 166.536C256.612 166.579 256.564 166.609 256.51 166.62C252.12 167.37 250.88 161.62 250.6 157.84C250.06 151 252.85 144.24 256.22 138.42Z" fill="#263238"/>
<path d="M219 96.54V96.61C210.55 102.7 205.84 113.46 209.05 123.75C213.05 136.69 229.57 133.83 239.54 131.67C240.03 131.56 240.26 132.3 239.77 132.42C230 134.79 213.37 137.26 208.77 125.22C204.63 114.49 209.73 102.58 219 96.54Z" fill="#263238"/>
<path d="M263.47 126.12C271.2 129.26 275.82 134.67 274.18 143.34C273.263 147.693 271.451 151.808 268.858 155.423C266.266 159.039 262.949 162.075 259.12 164.34C259.047 164.373 258.964 164.378 258.887 164.354C258.81 164.331 258.744 164.279 258.702 164.21C258.66 164.142 258.645 164.06 258.66 163.98C258.674 163.901 258.717 163.83 258.78 163.78C264.32 159.78 268.98 154.95 271.66 148.55C273.66 143.82 274.66 138.19 272.28 133.39C270.59 129.93 266.55 128.06 263.28 126.39C263.13 126.31 263.28 126.05 263.47 126.12Z" fill="#263238"/>
<path d="M234 112.43C245.7 109.19 267.06 109.07 265.13 126.5C265.13 126.64 264.87 126.62 264.88 126.5C265.88 108.76 245.68 111.06 234.08 112.93C233.79 113 233.73 112.5 234 112.43Z" fill="#263238"/>
<path d="M253.18 167.31C253.18 167.31 262.26 157.44 266.84 160.82C271.42 164.2 263.57 179.23 257.47 180.61C256.701 180.834 255.894 180.901 255.098 180.808C254.302 180.715 253.533 180.464 252.835 180.069C252.138 179.673 251.527 179.143 251.039 178.507C250.55 177.872 250.193 177.145 249.99 176.37L253.18 167.31Z" fill="#FFC4C0"/>
<path d="M264.48 165.07C264.501 165.07 264.522 165.078 264.537 165.093C264.552 165.108 264.56 165.129 264.56 165.15C264.56 165.171 264.552 165.192 264.537 165.207C264.522 165.222 264.501 165.23 264.48 165.23C260.19 166.33 257.54 169.82 255.48 173.53C256.9 172.19 258.66 171.58 260.48 173.3C260.58 173.39 260.48 173.54 260.34 173.5C259.654 173.178 258.886 173.075 258.139 173.205C257.393 173.336 256.705 173.694 256.17 174.23C255.284 175.143 254.5 176.149 253.83 177.23C253.59 177.57 252.96 177.29 253.15 176.89C253.163 176.858 253.18 176.828 253.2 176.8C253.83 171.57 258.84 164.85 264.48 165.07Z" fill="#263238"/>
<path d="M264 451.47C263.93 451.88 263.85 452.29 263.77 452.71C263.84 452.3 263.92 451.88 263.99 451.47H264Z" fill="#EBEBEB"/>
<path d="M294.58 107.34C294.582 108.784 294.155 110.197 293.355 111.398C292.554 112.6 291.414 113.537 290.081 114.091C288.747 114.646 287.279 114.792 285.862 114.511C284.445 114.23 283.144 113.536 282.122 112.515C281.1 111.495 280.403 110.194 280.121 108.778C279.838 107.362 279.982 105.893 280.535 104.559C281.087 103.224 282.023 102.084 283.223 101.281C284.424 100.478 285.836 100.05 287.28 100.05C289.214 100.05 291.07 100.818 292.438 102.185C293.807 103.551 294.577 105.406 294.58 107.34Z" fill="white"/>
<path d="M294.58 107.34C294.581 108.844 294.133 110.314 293.293 111.562C292.453 112.81 291.26 113.778 289.865 114.343C288.471 114.908 286.94 115.044 285.469 114.733C283.997 114.422 282.652 113.678 281.606 112.598C280.559 111.517 279.86 110.148 279.597 108.667C279.333 107.186 279.518 105.661 280.128 104.286C280.738 102.911 281.744 101.749 283.018 100.95C284.293 100.151 285.777 99.7502 287.28 99.8C289.235 99.8698 291.088 100.694 292.449 102.1C293.81 103.505 294.573 105.383 294.58 107.34V107.34ZM294.58 107.34C294.579 105.717 294.018 104.143 292.992 102.885C291.966 101.628 290.536 100.763 288.946 100.437C287.356 100.11 285.702 100.343 284.263 101.096C282.824 101.848 281.69 103.074 281.05 104.566C280.411 106.058 280.306 107.725 280.753 109.286C281.2 110.846 282.173 112.205 283.506 113.131C284.838 114.058 286.45 114.496 288.069 114.372C289.688 114.248 291.214 113.569 292.39 112.45C293.08 111.79 293.63 110.997 294.007 110.119C294.383 109.241 294.578 108.295 294.58 107.34V107.34Z" fill="#263238"/>
<path d="M349.76 68.07C349.762 74.9357 347.728 81.6478 343.916 87.358C340.104 93.0681 334.685 97.5198 328.343 100.15C322.001 102.781 315.022 103.472 308.287 102.137C301.553 100.802 295.365 97.4997 290.507 92.6484C285.648 87.7971 282.338 81.6144 280.993 74.8817C279.648 68.1491 280.329 61.1688 282.95 54.8232C285.572 48.4777 290.016 43.0518 295.72 39.2315C301.425 35.4112 308.134 33.3679 315 33.36C319.562 33.3548 324.08 34.2486 328.297 35.9905C332.513 37.7323 336.345 40.2881 339.573 43.5116C342.801 46.7351 345.362 50.5632 347.11 54.7771C348.858 58.9909 349.759 63.508 349.76 68.07Z" fill="white"/>
<path d="M349.76 68.07C349.771 77.2853 346.132 86.13 339.64 92.67C335.583 96.7851 330.571 99.8318 325.05 101.538C319.529 103.244 313.672 103.557 308.001 102.449C302.33 101.34 297.021 98.8451 292.549 95.1856C288.077 91.5261 284.581 86.8164 282.372 81.4767C280.164 76.137 279.312 70.3336 279.892 64.5844C280.472 58.8352 282.467 53.319 285.698 48.5284C288.929 43.7377 293.296 39.8215 298.409 37.1294C303.522 34.4373 309.222 33.053 315 33.1C324.25 33.1621 333.097 36.8916 339.6 43.47C342.82 46.705 345.37 50.5425 347.107 54.7634C348.843 58.9843 349.731 63.5059 349.72 68.07H349.76ZM349.76 68.07C349.759 63.5197 348.857 59.0146 347.106 54.8147C345.355 50.6147 342.789 46.803 339.558 43.5994C336.327 40.3958 332.493 37.8638 328.278 36.1493C324.063 34.4348 319.55 33.5718 315 33.61C309.357 33.6606 303.812 35.0964 298.854 37.7912C293.895 40.486 289.675 44.3573 286.562 49.0651C283.45 53.7728 281.542 59.1728 281.005 64.7907C280.468 70.4085 281.319 76.0722 283.484 81.2842C285.648 86.4961 289.059 91.0968 293.417 94.6819C297.776 98.267 302.948 100.727 308.48 101.845C314.011 102.964 319.733 102.706 325.141 101.096C330.55 99.4858 335.481 96.5718 339.5 92.61C346.017 86.1232 349.693 77.315 349.72 68.12L349.76 68.07Z" fill="#263238"/>
<path d="M277.69 119.37C277.69 120.173 277.452 120.958 277.006 121.626C276.559 122.293 275.925 122.814 275.184 123.121C274.442 123.428 273.625 123.509 272.838 123.352C272.05 123.195 271.327 122.809 270.759 122.241C270.191 121.673 269.804 120.95 269.648 120.162C269.491 119.375 269.572 118.558 269.879 117.816C270.186 117.075 270.707 116.44 271.374 115.994C272.042 115.548 272.827 115.31 273.63 115.31C274.707 115.31 275.739 115.738 276.501 116.499C277.262 117.261 277.69 118.293 277.69 119.37Z" fill="white"/>
<path d="M277.69 119.37C277.687 120.47 277.266 121.527 276.512 122.327C275.758 123.128 274.727 123.612 273.63 123.68C273.051 123.708 272.472 123.622 271.926 123.427C271.381 123.231 270.879 122.93 270.45 122.54C269.92 122.054 269.52 121.444 269.286 120.764C269.051 120.084 268.99 119.357 269.108 118.648C269.226 117.939 269.519 117.27 269.961 116.703C270.402 116.136 270.979 115.687 271.637 115.399C272.296 115.111 273.016 114.991 273.732 115.052C274.448 115.112 275.138 115.35 275.74 115.744C276.341 116.139 276.834 116.677 277.174 117.31C277.515 117.943 277.692 118.651 277.69 119.37V119.37ZM277.69 119.37C277.691 118.848 277.585 118.331 277.378 117.852C277.171 117.373 276.868 116.941 276.487 116.584C276.106 116.226 275.656 115.951 275.165 115.775C274.673 115.599 274.151 115.526 273.63 115.56C272.886 115.607 272.172 115.87 271.576 116.318C270.98 116.766 270.528 117.378 270.275 118.079C270.023 118.781 269.981 119.541 270.156 120.265C270.33 120.99 270.712 121.648 271.256 122.158C271.799 122.668 272.48 123.008 273.215 123.136C273.949 123.264 274.705 123.174 275.389 122.878C276.073 122.581 276.655 122.091 277.064 121.468C277.473 120.845 277.69 120.115 277.69 119.37V119.37Z" fill="#263238"/>
<path d="M308.42 75.0001C308.396 73.3482 308.695 71.7076 309.3 70.1701C310.061 68.5553 311.338 67.2397 312.93 66.4301C313.48 66.1001 314.15 65.7201 314.93 65.3001C315.759 64.8671 316.549 64.3618 317.29 63.7901C318.051 63.2177 318.71 62.5213 319.24 61.7301C319.776 60.9257 320.055 59.9769 320.04 59.0101C320.047 58.3185 319.897 57.6344 319.6 57.0101C319.319 56.4376 318.922 55.9297 318.435 55.5183C317.948 55.1069 317.381 54.8011 316.77 54.6201C316.139 54.4214 315.481 54.3203 314.82 54.3201C314.066 54.3113 313.319 54.4506 312.62 54.7301C311.985 54.9844 311.387 55.3206 310.84 55.7301C310.312 56.1528 309.832 56.6323 309.41 57.1601C309.024 57.6423 308.667 58.1465 308.34 58.6701L303.56 55.3801C304.019 54.282 304.657 53.2681 305.45 52.3801C306.234 51.5066 307.144 50.755 308.15 50.1501C309.166 49.5421 310.264 49.0808 311.41 48.7801C312.594 48.4678 313.814 48.3098 315.04 48.3101C316.435 48.3103 317.822 48.5124 319.16 48.9101C320.492 49.3055 321.733 49.9615 322.81 50.8401C323.924 51.7625 324.824 52.9157 325.45 54.2201C326.549 56.7417 326.764 59.5609 326.06 62.2201C325.796 63.0918 325.394 63.9156 324.87 64.6601C324.357 65.4035 323.748 66.076 323.06 66.6601C322.314 67.2819 321.526 67.85 320.7 68.3601C319.97 68.8001 319.23 69.2201 318.5 69.6301C317.793 70.0146 317.124 70.4632 316.5 70.9701C315.91 71.4477 315.406 72.0226 315.01 72.6701C314.612 73.3843 314.415 74.1929 314.44 75.0101L308.42 75.0001ZM308.53 87.8001V80.2401H314.63V87.8201L308.53 87.8001Z" fill="#FF7A0E"/>
</svg>
