<svg width="605" height="258" viewBox="0 0 605 258" fill="none" xmlns="http://www.w3.org/2000/svg">
<path d="M272.329 159C279.665 159 285.307 155.928 289.884 150.661L285.621 146.21C281.984 150.348 278.034 152.605 272.768 152.605C261.671 152.605 254.586 143.389 254.586 128.843C254.586 114.423 261.671 105.395 272.768 105.395C277.596 105.395 281.357 107.527 284.304 110.661L288.442 106.022C285.119 102.323 279.665 99 272.768 99C257.721 99 247 110.411 247 129.031C247 147.903 257.846 159 272.329 159ZM296.718 157.997H304.179L309.696 140.254H330.574L336.028 157.997H343.74L324.367 100.066H316.091L296.718 157.997ZM311.514 134.36L314.273 125.52C316.279 119 318.097 112.793 319.978 106.022H320.292C322.172 112.793 323.991 119 325.997 125.52L328.755 134.36H311.514ZM355.339 157.997H362.611V133.483H372.893L386.749 157.997H395.088L380.417 132.668C388.254 130.661 393.332 125.332 393.332 116.304C393.332 104.266 384.931 100.066 373.27 100.066H355.339V157.997ZM362.611 127.527V105.897H372.204C381.169 105.897 386.06 108.655 386.06 116.304C386.06 123.828 381.169 127.527 372.204 127.527H362.611ZM425.997 159C438.661 159 446.373 151.727 446.373 142.511C446.373 133.922 440.668 130.16 433.646 127.088L425.558 123.577C420.668 121.445 415.276 119.439 415.276 113.922C415.276 108.655 419.79 105.395 426.687 105.395C432.392 105.395 436.781 107.527 440.542 110.85L444.429 106.085C440.229 101.884 433.897 99 426.687 99C415.715 99 407.815 105.458 407.815 114.361C407.815 122.762 414.523 126.962 420.292 129.282L428.567 132.856C434.398 135.426 438.912 137.182 438.912 143.138C438.912 148.843 434.273 152.605 426.06 152.605C419.79 152.605 413.771 149.721 409.508 145.332L405.119 150.411C410.26 155.677 417.596 159 425.997 159ZM461.984 157.997H498.411V151.727H469.382V130.661H493.144V124.455H469.382V106.21H497.533V100.066H461.984V157.997ZM516.342 157.997H552.016V151.727H523.489V100.066H516.342V157.997ZM569.006 157.997H604.68V151.727H576.154V100.066H569.006V157.997Z" fill="white"/>
<path d="M137.685 89.8915C137.35 88.4349 137.183 86.9451 137.185 85.4507C137.185 84.9006 137.207 84.3586 137.25 83.8246C137.334 83.9143 137.418 84.0012 137.504 84.0882L139.545 86.1279C139.594 87.4583 139.789 88.7231 140.1 89.8915H150.426C151.8 89.8915 153.212 90.123 154.62 90.5553C155.105 89.0162 155.381 87.2896 155.381 85.4507C155.381 78.6665 151.631 73.416 147.457 73.416C146.748 73.416 146.052 73.5672 145.386 73.8523C145.986 75.3168 147.103 76.5097 148.525 77.2044C149.947 77.899 151.575 78.0469 153.099 77.6198C154.195 79.4762 154.922 81.8679 155.062 84.5058L149.102 86.6646C147.288 87.3215 145.323 87.4475 143.44 87.0279C141.556 86.6084 139.831 85.6606 138.466 84.2957C137.096 82.9252 136.136 81.1986 135.696 79.3112C135.256 77.4237 135.353 75.4507 135.975 73.6154L140.727 59.6173C141.827 56.3784 143.658 53.4339 146.076 51.0155L176.578 20.5124C176.907 20.1843 177.352 20 177.817 20C178.281 20 178.727 20.1843 179.055 20.5124L201.829 43.2863C202.158 43.6151 202.342 44.0609 202.342 44.5257C202.342 44.9905 202.158 45.4363 201.829 45.765L200.261 47.3349C200.887 49.2716 201.227 51.3447 201.227 53.4995C201.227 64.2387 192.798 72.9435 182.401 72.9435C180.165 72.9456 177.948 72.5369 175.859 71.7377L171.162 76.4354C168.85 78.7474 166.058 80.523 162.984 81.6363L157.928 83.4672C157.663 80.7396 156.86 78.2475 155.668 76.2065C156.474 75.4847 157.086 74.5719 157.448 73.5519C157.809 72.532 157.908 71.4376 157.736 70.3694C157.564 69.3011 157.126 68.2932 156.463 67.4381C155.8 66.5831 154.933 65.9085 153.941 65.4761C152.949 65.0437 151.864 64.8675 150.787 64.9637C149.709 65.0598 148.673 65.4252 147.773 66.0263C146.873 66.6275 146.139 67.445 145.638 68.4039C145.136 69.3628 144.884 70.4323 144.904 71.5141C145.723 71.2189 146.587 71.0676 147.457 71.0671C153.13 71.0671 157.73 77.5047 157.73 85.4494C157.73 87.5667 157.402 89.5769 156.815 91.3864C162.218 93.8343 167.27 99.042 169.687 105.209L180.558 132.88C180.842 132.847 181.119 132.781 181.422 132.781H189.772C194.491 132.773 198.328 137.118 198.328 142.491C198.328 147.851 194.491 152.2 189.772 152.2H187.674C187.674 152.215 187.681 152.223 187.681 152.239C188.862 155.734 189.462 159.4 189.457 163.09V174.466C189.457 185.591 186.739 195.194 180.593 199.87V212.368C180.593 218.642 176.1 223.728 170.575 223.728H161.39C155.867 223.728 151.376 218.636 151.376 212.368V202.888H69.9745V212.368C69.9745 218.642 65.4856 223.728 59.9567 223.728H50.7634C45.2359 223.728 40.7456 218.636 40.7456 212.368V199.87C34.6078 195.194 31.8909 185.599 31.8909 174.468V163.092C31.8909 159.258 32.5199 155.599 33.6468 152.253C33.6468 152.239 33.6575 152.223 33.6575 152.2H31.5563C26.8304 152.201 23 147.854 23 142.501C23 137.132 26.8304 132.784 31.5563 132.784H39.9024C40.2062 132.784 40.486 132.854 40.7724 132.883L51.6414 105.219C55.077 96.4803 63.3576 89.8915 70.902 89.8915H137.686H137.685ZM53.8551 139.543C53.8551 148.302 169.09 148.292 169.09 139.539C169.09 138.409 168.873 137.004 168.858 136.909C166.817 128.696 158.974 111.726 158.974 111.726C157.076 106.894 152.313 103.149 149.485 103.149H73.4838C70.6558 103.149 65.8938 106.894 63.992 111.733C63.992 111.733 57.0926 127.503 54.096 136.915C53.9482 137.784 53.8677 138.662 53.8551 139.543V139.543ZM76.2248 177.214C76.2248 170.326 70.6169 164.716 63.6975 164.716C56.7874 164.716 51.1783 170.313 51.1783 177.214C51.1783 184.107 56.7861 189.701 63.6975 189.701C70.6169 189.704 76.2248 184.111 76.2248 177.214ZM173.282 177.214C173.282 170.326 167.68 164.716 160.761 164.716C153.848 164.716 148.234 170.313 148.234 177.214C148.234 184.107 153.839 189.701 160.761 189.701C167.683 189.701 173.282 184.111 173.282 177.214ZM92.0953 174.082C91.5628 174.082 91.0522 174.294 90.6757 174.67C90.2992 175.047 90.0877 175.557 90.0877 176.09C90.0877 176.622 90.2992 177.133 90.6757 177.509C91.0522 177.886 91.5628 178.097 92.0953 178.097H131.015C131.548 178.097 132.059 177.886 132.435 177.509C132.811 177.133 133.023 176.622 133.023 176.09C133.023 175.557 132.811 175.047 132.435 174.67C132.059 174.294 131.548 174.082 131.015 174.082H92.0953ZM92.0953 183.451C91.5628 183.451 91.0522 183.663 90.6757 184.039C90.2992 184.416 90.0877 184.926 90.0877 185.459C90.0877 185.991 90.2992 186.502 90.6757 186.878C91.0522 187.255 91.5628 187.466 92.0953 187.466H131.015C131.548 187.466 132.059 187.255 132.435 186.878C132.811 186.502 133.023 185.991 133.023 185.459C133.023 184.926 132.811 184.416 132.435 184.039C132.059 183.663 131.548 183.451 131.015 183.451H92.0953ZM182.401 35.8249C172.948 35.8249 165.286 43.7387 165.286 53.5009C165.286 63.263 172.948 71.1769 182.401 71.1769C191.853 71.1769 199.515 63.263 199.515 53.5009C199.515 43.7387 191.853 35.8249 182.401 35.8249V35.8249ZM189.479 56.7438C189.487 57.3677 189.371 57.9872 189.139 58.5663C188.906 59.1454 188.562 59.6727 188.124 60.1178C187.222 61.0654 185.913 61.673 184.199 61.9394V63.1386C184.199 63.9175 183.587 64.5492 182.834 64.5492C182.079 64.5492 181.468 63.9175 181.468 63.1386V62.033C180.371 61.9623 179.286 61.761 178.236 61.4335C177.652 61.2538 177.085 61.0246 176.54 60.7482C176.308 60.6233 176.13 60.4152 176.044 60.1654C175.958 59.9157 175.969 59.6425 176.075 59.4005L176.095 59.3523L176.835 57.6365C176.876 57.5366 176.938 57.4466 177.016 57.3723C177.094 57.2979 177.187 57.2408 177.289 57.2049C177.391 57.1689 177.499 57.1547 177.607 57.1634C177.714 57.172 177.819 57.2033 177.914 57.255L178.025 57.3153C178.528 57.5776 179.077 57.8024 179.67 57.9911C180.567 58.2817 181.504 58.432 182.447 58.4368C184.176 58.4368 185.041 57.9911 185.041 57.0984C185.041 56.6273 184.794 56.278 184.3 56.0518C183.808 55.8243 183.016 55.5847 181.922 55.3345C180.724 55.0668 179.723 54.7817 178.919 54.4765C178.114 54.171 177.401 53.6652 176.847 53.007C176.271 52.3338 175.982 51.425 175.982 50.2807C175.982 48.933 176.453 47.7779 177.394 46.8143C178.334 45.8507 179.692 45.2578 181.467 45.0383V43.8632C181.467 43.0842 182.079 42.4539 182.832 42.4539C183.587 42.4539 184.197 43.0842 184.197 43.8632V44.9914C185.042 45.0661 185.877 45.2239 186.691 45.4625C187.274 45.6321 187.839 45.8566 188.38 46.1331C188.63 46.2669 188.74 46.5747 188.631 46.8438L187.598 49.4161C187.578 49.4684 187.547 49.5159 187.508 49.5556C187.468 49.5952 187.421 49.626 187.369 49.6461C187.316 49.6662 187.26 49.675 187.205 49.6721C187.149 49.6691 187.094 49.6544 187.044 49.6289C186.98 49.5952 186.915 49.5621 186.85 49.5299C185.538 48.8875 184.259 48.5649 183.016 48.5649C182.119 48.5649 181.467 48.7014 181.058 48.9758C180.648 49.2502 180.443 49.6062 180.443 50.0465C180.443 50.4842 180.687 50.8134 181.171 51.0329C181.657 51.2524 182.439 51.4799 183.516 51.7155C184.73 51.9805 185.735 52.2669 186.531 52.572C187.328 52.8785 188.017 53.3644 188.602 54.0309C189.187 54.696 189.479 55.6008 189.479 56.7451V56.7438Z" fill="white"/>
<path d="M266.821 182.728V181.851H261V189.904H261.912V186.412H266.282V185.526H261.912V182.728H266.821ZM276.552 180C275.952 180 275.466 180.487 275.466 181.095C275.466 181.46 275.648 181.79 275.926 181.99L272.573 189.904H273.58L274.562 187.567H278.559L279.54 189.904H280.548L277.177 181.99C277.473 181.79 277.655 181.46 277.655 181.095C277.655 180.487 277.169 180 276.552 180ZM274.918 186.733L276.56 182.798L278.202 186.733H274.918ZM276.552 181.633C276.265 181.633 276.022 181.39 276.022 181.095C276.022 180.791 276.265 180.547 276.552 180.547C276.856 180.547 277.099 180.791 277.099 181.095C277.099 181.39 276.856 181.633 276.552 181.633ZM301.4 185.795C301.973 185.534 302.477 185.013 302.477 183.979C302.477 183.006 301.834 181.851 299.94 181.851H296.326V189.904H300.149C301.982 189.904 302.894 188.992 302.894 187.785C302.894 186.586 302.077 186.012 301.4 185.795ZM297.238 182.719H300.036C301.139 182.719 301.565 183.388 301.565 184.057C301.565 185.039 300.774 185.456 299.94 185.456H297.238V182.719ZM300.244 189.044H297.238V186.281H300.149C301.426 186.281 301.982 186.959 301.982 187.715C301.982 188.558 301.348 189.044 300.244 189.044ZM311.374 181.851H310.461V189.904H311.374V181.851ZM319.427 181.851V189.904H324.727V189.027H320.34V181.851H319.427ZM337.916 182.728V181.851H331.99V189.904H337.916V189.027H332.903V186.316H337.377V185.43H332.903V182.728H337.916ZM351.495 181.851V188.627L346.526 181.851H345.466V189.904H346.378V183.102L351.356 189.904H352.407V181.851H351.495ZM369.671 183.97C369.671 183.432 369.983 182.606 371.808 182.606C373.285 182.606 373.963 183.249 374.058 184.057H374.997C374.927 182.85 373.954 181.755 371.808 181.755C369.792 181.755 368.785 182.667 368.785 183.979C368.785 186.742 374.293 185.743 374.293 187.715C374.293 188.662 373.441 189.14 372.077 189.14C370.679 189.14 369.549 188.662 369.488 187.498H368.541C368.663 188.94 369.636 190 372.017 190C373.997 190 375.205 189.175 375.205 187.68C375.205 184.865 369.671 185.838 369.671 183.97ZM385.726 180C385.127 180 384.64 180.487 384.64 181.095C384.64 181.46 384.823 181.79 385.109 181.99L381.747 189.904H382.755L383.745 187.567H387.733L388.715 189.904H389.732L386.361 181.99C386.647 181.79 386.83 181.46 386.83 181.095C386.83 180.487 386.343 180 385.726 180ZM384.093 186.733L385.735 182.798L387.377 186.733H384.093ZM385.726 181.633C385.448 181.633 385.205 181.39 385.205 181.095C385.205 180.791 385.448 180.547 385.726 180.547C386.03 180.547 386.274 180.791 386.274 181.095C386.274 181.39 386.03 181.633 385.726 181.633ZM396.83 181.851V189.904H402.138V189.027H397.742V181.851H396.83ZM412.79 181.851H409.393V189.904H412.79C414.71 189.904 416.491 188.393 416.491 185.882C416.491 183.362 414.71 181.851 412.79 181.851ZM412.755 189.044H410.305V182.719H412.755C414.467 182.719 415.579 184.153 415.579 185.882C415.579 187.602 414.467 189.044 412.755 189.044ZM433.624 187.037H436.334C438.055 187.037 439.115 186.038 439.115 184.44C439.115 182.858 438.055 181.851 436.334 181.851H432.712V189.904H433.624V187.037ZM436.274 182.719C437.542 182.719 438.202 183.371 438.202 184.44C438.202 185.526 437.542 186.186 436.274 186.186H433.624V182.719H436.274ZM449.036 180C448.437 180 447.95 180.487 447.95 181.095C447.95 181.46 448.133 181.79 448.42 181.99L445.057 189.904H446.065L447.056 187.567H451.043L452.025 189.904H453.042L449.671 181.99C449.957 181.79 450.14 181.46 450.14 181.095C450.14 180.487 449.653 180 449.036 180ZM447.403 186.733L449.045 182.798L450.687 186.733H447.403ZM449.036 181.633C448.758 181.633 448.515 181.39 448.515 181.095C448.515 180.791 448.758 180.547 449.036 180.547C449.341 180.547 449.584 180.791 449.584 181.095C449.584 181.39 449.341 181.633 449.036 181.633ZM469.471 181.851V182.728H471.174V189.904H472.086V181.851H469.471ZM483.997 184.683C483.511 184.683 482.937 184.831 482.573 185.065L482.937 182.728H486.308V181.851H482.112L481.565 185.673L482.399 186.186C482.677 185.864 483.276 185.534 483.997 185.534C485.049 185.534 485.796 186.255 485.796 187.324C485.796 188.323 485.066 189.114 483.971 189.114C482.781 189.114 482.234 188.48 482.051 187.889H481.113C481.278 188.714 481.938 190 484.006 190C485.526 190 486.708 188.81 486.708 187.324C486.708 185.778 485.622 184.683 483.997 184.683ZM509.801 181.851L506.969 185.673L504.084 181.851H503.033V189.904H503.945V183.241L506.969 187.072L509.949 183.241V189.904H510.861V181.851H509.801ZM519.827 181.851H518.915V189.904H519.827V181.851ZM533.91 181.851V188.627L528.941 181.851H527.881V189.904H528.793V183.102L533.763 189.904H534.823V181.851H533.91ZM548.715 181.851V186.464C548.715 188.332 547.473 189.114 546.195 189.114C544.918 189.114 543.693 188.332 543.693 186.464V181.851H542.781V186.438C542.781 188.575 544.189 190 546.195 190C548.22 190 549.627 188.566 549.627 186.438V181.851H548.715ZM563.302 181.851H556.769V182.728H559.575V189.904H560.487V182.728H563.302V181.851ZM576.456 182.728V181.851H570.54V189.904H576.456V189.027H571.452V186.316H575.926V185.43H571.452V182.728H576.456ZM584.927 186.811H587.725L589.671 189.904H590.748L588.637 186.655C589.532 186.447 590.583 185.925 590.583 184.37C590.583 182.841 589.523 181.851 587.872 181.851H584.015V189.904H584.927V186.811ZM584.927 182.719H587.759C588.906 182.719 589.671 183.345 589.671 184.37C589.671 185.621 588.576 185.951 587.707 185.951H584.927V182.719Z" fill="white"/>
<circle cx="181.5" cy="53.5" r="18.5" fill="white"/>
<path d="M177.296 61V50.408H178.496V55.928L184.384 50.408H186.08L181.568 54.664L186.336 61H184.832L180.688 55.48L178.496 57.528V61H177.296ZM188.89 61V53H190.09V54.968C190.133 54.8293 190.213 54.648 190.33 54.424C190.458 54.1893 190.639 53.9547 190.874 53.72C191.109 53.4853 191.402 53.288 191.754 53.128C192.117 52.9573 192.543 52.872 193.034 52.872H193.114V54.072H192.97C192.373 54.072 191.855 54.2373 191.418 54.568C190.991 54.888 190.661 55.3093 190.426 55.832C190.202 56.344 190.09 56.8933 190.09 57.48V61H188.89Z" fill="black"/>
</svg>
