<svg width="500" height="500" fill="none" xmlns="http://www.w3.org/2000/svg"><path d="M294.925 141.475c-19.395-4.241-39.41.382-54.365 17.575-14.546 16.727-21.146 44.725-36.317 60.275-23.43 24.062-56.709 16.07-70.301 59.266-4.849 15.421-6.099 32.652-5.926 49.532.199 21.143 2.629 42.539 9.067 61.604 6.438 19.065 17.159 35.701 30.875 43.969 20.246 12.226 43.709 4.913 64.03-7.015 8.383-4.913 16.798-10.698 25.86-11.355 11.411-.848 22.213 6.449 33.052 11.577 13.005 6.166 27.412 9.269 40.325 2.712 10.107-5.127 18.415-15.756 25.079-27.692 11.907-21.412 19.228-47.224 21.092-74.366 5.166-76.903-22.811-173.054-82.471-186.082Z" fill="#FF8119"/><path opacity=".7" d="M211.754 439.123c19.553 4.249 39.731-.383 54.808-17.611 14.665-16.76 21.319-44.814 36.614-60.395 23.621-24.111 57.171-16.102 70.874-59.385 4.888-15.451 6.149-32.717 5.975-49.631-.201-21.186-2.651-42.624-9.141-61.728-6.491-19.103-17.299-35.772-31.128-44.056-20.411-12.251-44.065-4.923-64.552 7.029-8.452 4.923-16.935 10.719-26.071 11.378-11.504.849-22.394-6.463-33.322-11.6-13.111-6.179-27.635-9.288-40.654-2.718-10.189 5.137-18.565 15.788-25.283 27.747-12.004 21.455-19.385 47.318-21.264 74.515-5.209 77.056 22.996 173.4 83.144 186.455Z" fill="#fff"/><path d="M187.73 98.95v51.87H95.61v12.19l-44.94-42.1 40.91-38.13 4.03 3.98v8.22h88.08l4.04 3.97Z" fill="#FF7A0E"/><path opacity=".1" d="M187.73 98.95v51.87H95.61v12.19l-44.94-42.1 40.91-38.13 4.03 3.98v8.22h88.08l4.04 3.97Z" fill="#000"/><path d="M183.69 94.98H91.58v51.87h92.11V94.98Zm-92.11 64.05V82.78l-40.91 38.13 40.91 38.12Z" fill="#FF7A0E"/><path d="m408.43 163.01-4.04-3.98v-8.21h-88.08l-4.03-3.98V94.98h92.11v-12.2l44.94 42.11-40.9 38.12Z" fill="#37474F"/><path d="M312.28 146.84h92.11V94.97h-92.11v51.87Zm92.11-64.06v76.25l40.91-38.12-40.91-38.13Z" fill="#282828"/><path d="M280.61 360v.24c0 .04 0 .16-.05.27v.18a3.035 3.035 0 0 0-.07.39c0 .09 0 .18-.05.28-.05.1-.07.42-.12.66-.05.24-.15.81-.23 1.29l-.45 2.44c-.05.26-.1.54-.15.83-.05.29-.14.78-.22 1.19-.08.41-.16.92-.25 1.41-.06.34-.13.69-.19 1.05-.19 1.07-.39 2.21-.62 3.43a.272.272 0 0 0 0 .09c-.24 1.36-.5 2.82-.78 4.35-.07.4-.15.8-.23 1.2-.08.4-.16.84-.23 1.26 0 .26-.09.53-.15.8-.38 2.127-.79 4.38-1.23 6.76-.15.8-.29 1.61-.44 2.43-.29 1.6-.59 3.24-.9 4.93-.08.39-.15.78-.21 1.18-.453 2.447-.917 4.993-1.39 7.64-.06.27-.1.54-.15.81-.23 1.24-.46 2.49-.68 3.77-.03.098-.05.198-.06.3l-.33 1.82c-.44 2.44-.893 4.937-1.36 7.49-.12.63-.24 1.27-.35 1.92-.23 1.29-.47 2.59-.71 3.9-.3 1.63-.6 3.27-.9 4.94-.3 1.67-.6 3.34-.91 5-.16.85-.31 1.7-.47 2.55-.18 1-.37 2-.55 3.07h-86.43c10.66-44.29 19.65-80 19.65-80l81.21.13Z" fill="#37474F"/><path d="M267.55 370c-4.327 23.333-8.7 46.667-13.12 70h-1.2c4.59-23.39 9.32-46.74 14-70.1.07-.22.35-.13.32.1Z" fill="#37474F"/><path d="M280.6 360v.24c0 .04 0 .16-.05.27v.18a3.035 3.035 0 0 0-.07.39c0 .09 0 .18-.05.28-.05.1-.08.42-.12.66-.04.24-.15.81-.23 1.29-.14.71-.28 1.52-.45 2.44-.05.26-.1.54-.15.83-.05.29-.14.78-.22 1.19-.08.41-.16.92-.25 1.41-.06.34-.13.69-.19 1.05-.2 1.07-.4 2.21-.62 3.43a.272.272 0 0 0 0 .09c-.25 1.36-.51 2.8-.79 4.33-.08.4-.15.81-.22 1.22-.07.41-.16.84-.23 1.26-.06.26-.1.53-.15.8-.39 2.12-.8 4.38-1.23 6.76-.15.8-.29 1.61-.44 2.43-.3 1.6-.6 3.24-.9 4.93-.08.39-.15.78-.21 1.18-.46 2.46-.923 5.007-1.39 7.64-.06.27-.1.54-.15.81-.23 1.24-.46 2.49-.68 3.77-.03.098-.05.198-.06.3l-.33 1.82c-.453 2.44-.907 4.937-1.36 7.49-.12.63-.24 1.27-.35 1.92-.24 1.29-.47 2.59-.71 3.9-.3 1.63-.6 3.27-.9 4.94-.3 1.67-.61 3.34-.91 5-.16.85-.31 1.7-.47 2.55-.18 1-.37 2-.56 3.07h-43.37l-3.47-35.52-.12-1.26-.14-1.36-.68-6.95-.59-6L215 360h65.6Z" fill="#282828"/><path d="M329.71 440H236.5c-.16-8.58-.33-16.88-.54-24.71v-.57s-10.88-6.44-16.74-11.49a20.651 20.651 0 0 1-2.74-2.72c-3.75-4.78-7.51-23.16-15.29-40.45h114c18.52 35.94 17.22 64.82 14.52 79.94Z" fill="#37474F"/><path d="M213.76 399.24c5.55 2.27 10.54 5.76 15.46 9.13 5.11 3.49 9.8 7.53 14.72 11.28.19.15 0 .46-.2.32-5.18-3.31-10.61-6.22-15.74-9.63-5-3.31-10.16-6.53-14.49-10.7-.17-.16.02-.5.25-.4Z" fill="#282828"/><path d="M213.06 367.17c.66 3.55 1.52 7.07 2.29 10.6.72 3.31 1.25 6.68 2.12 10a16.914 16.914 0 0 0 4.64 8.34c1.3 1.21 2.73 2.28 4.12 3.38.74.6 1.55 1.17 2.33 1.78-.11-.47-.19-1-.27-1.43-.24-1.35-.47-2.69-.69-4-.5-3-1-6-1.44-9-.9-5.89-1.73-11.84-3-17.67a.193.193 0 0 1 .135-.235.196.196 0 0 1 .146.019.19.19 0 0 1 .089.116c1.47 5.78 3.09 11.5 4.36 17.33.63 2.85 2.87 17 3 18 .13 1 .18 2.07.22 3.1.14 1.052.14 2.118 0 3.17a.259.259 0 0 1-.24.16.259.259 0 0 1-.24-.16 12.868 12.868 0 0 1-.9-3.06c-.26-1-.49-2-.67-3.06-.06-.36-.11-.74-.16-1.12-1.39-.85-2.69-2-4-2.9-1.31-.9-2.82-2-4.15-3.12a15.92 15.92 0 0 1-5.07-7.92A57.815 57.815 0 0 1 214 379.3c-.45-4-.77-8-1.33-12-.01-.3.33-.37.39-.13ZM308.93 396c-1.49-.78-7.25.6-17.74-1.2a12 12 0 0 1-5.67-2.3c-2.73-2.23-4.8-5.82-6.45-8.89a45.665 45.665 0 0 1-4.52-11c-.05-.23-.39-.12-.35.1.39 2.17.61 4.34 1.18 6.49a39.56 39.56 0 0 0 2.17 5.89c1.58 3.56 3.44 7.38 6.63 9.79 3.35 2.52 8 3 12.08 3.28 2.35.16 11.55-.09 12.79-1.4a.517.517 0 0 0 .113-.407.51.51 0 0 0-.233-.353Z" fill="#282828"/><path d="M304.89 365.21c1.06 3 2.09 6 2.94 9.08.85 3.08 1.72 6.11 2.5 9.18a177.106 177.106 0 0 1 3.56 18.65 135.655 135.655 0 0 1 1.3 18.89l-.08 4.75c-.06 1.58-.23 3.15-.34 4.74l-.15 2.38c-.09.78-.22 1.57-.33 2.35-.23 1.57-.44 3.15-.64 4.74a82.168 82.168 0 0 0 3.1-18.91c.298-6.417.003-12.847-.88-19.21a127.642 127.642 0 0 0-4-18.78 106.911 106.911 0 0 0-6.98-17.86Z" fill="#263238"/><path d="M205.81 220.55c-39 33.6-66.92 62.69-66.91 76.24 0 30.36 15.87 37.31 18.74 36.42 30.36-9.45 50.94-66.21 64.47-100.53 13.43-34.04-5.11-21.75-16.3-12.13Z" fill="#FFC4C0"/><path d="m150.39 268.42 47.43 26.89s20.67-42.23 28-67.61c7.33-25.38-2.94-24.82-25.83-5.39-22.89 19.43-49.6 46.11-49.6 46.11Z" fill="#FF7A0E"/><path d="M203.83 225.56a16.596 16.596 0 0 0-2.12-3.48l-.24-.27c0 .14 0 .28.07.41.251 1.32.668 2.604 1.24 3.82a15.426 15.426 0 0 0 2.36 3.75 15.888 15.888 0 0 0-1.31-4.23ZM181.44 242a15.389 15.389 0 0 0-3.75 2.35 17.116 17.116 0 0 0 8-3.66c-1.473.229-2.904.67-4.25 1.31Zm45.19-23.18a8.044 8.044 0 0 0 1.21-.24c0-.26.07-.51.1-.76-.46.317-.898.664-1.31 1.04v-.04Zm-39.46 53.78a15.545 15.545 0 0 0-1 4.32 14.994 14.994 0 0 0 2.06-3.92 15.93 15.93 0 0 0 1-4.31 15.481 15.481 0 0 0-2.06 3.91Zm32.61-34.54a15.545 15.545 0 0 0-1 4.32 14.994 14.994 0 0 0 2.06-3.92 15.93 15.93 0 0 0 1-4.31 15.481 15.481 0 0 0-2.06 3.91ZM163.89 268a15.545 15.545 0 0 0-4.32-1 17.176 17.176 0 0 0 8.24 3 16.008 16.008 0 0 0-3.92-2Zm39.29-14.57a15.545 15.545 0 0 0-4.32-1 17.176 17.176 0 0 0 8.24 3 15.982 15.982 0 0 0-3.92-2.04v.04Zm2.15 5.12v.1h.18a1.884 1.884 0 0 0-.18-.14v.04Z" fill="#fff"/><path d="M160.38 261.25c18.25 12.83 36 21.27 39.55 23.4.16.1.31-.18.13-.28-3.59-1.9-23-14.49-39.53-23.42-.19-.1-.32.18-.15.3Z" fill="#263238"/><path opacity=".1" d="m184.87 288 12.95 7.34s20.67-42.23 28-67.61c2.69-9.35 3-15.18 1.17-17.84L184.87 288Z" fill="#000"/><path d="M190.82 379.16h134.9s-20.61-128.72-70.33-172.74c-6.14-5.44-20-4.2-29 .29-3.23 1.61-14.82 17.82-18.13 33.16-3.31 15.34-17.8 138.83-17.44 139.29Z" fill="#FF7A0E"/><path d="M266.65 242.56a17.177 17.177 0 0 0 8.24 3.05 17.174 17.174 0 0 0-8.24-3.05Zm-61.33 16.05h.18a1.855 1.855 0 0 0-.17-.12s-.01.09-.01.12Zm30.75 19.21a17.177 17.177 0 0 0 8.24 3.05 16.013 16.013 0 0 0-3.92-2.06 15.53 15.53 0 0 0-4.32-.99Zm18.33 55.9a15.69 15.69 0 0 0 3.92 2.07c1.385.538 2.84.875 4.32 1a17.063 17.063 0 0 0-8.24-3.06v-.01Zm30.87-39a17.177 17.177 0 0 0 8.24 3.05 16.013 16.013 0 0 0-3.92-2.06 15.507 15.507 0 0 0-4.32-.96v-.03ZM313 372.48a17.063 17.063 0 0 0 8.24 3.06 17.333 17.333 0 0 0-8.24-3.06Zm-59.59-4.87a17.063 17.063 0 0 0 8.24 3.06 15.657 15.657 0 0 0-3.92-2.06 15.231 15.231 0 0 0-4.37-1h.05Zm-62.16 7.21c.806.437 1.642.818 2.5 1.14 1.385.537 2.84.874 4.32 1a15.824 15.824 0 0 0-3.92-2.06 18.011 18.011 0 0 0-2.81-.8c-.09.24-.11.49-.14.72h.05Zm23.66-42.62a17.177 17.177 0 0 0 8.24 3.05 15.657 15.657 0 0 0-3.92-2.06 15.19 15.19 0 0 0-4.37-.99h.05ZM256.08 227a17.174 17.174 0 0 0 3.05-8.24 15.675 15.675 0 0 0-2.06 3.92 15.202 15.202 0 0 0-.99 4.32Zm29.69 151a17.174 17.174 0 0 0 3.05-8.24 15.494 15.494 0 0 0-2.06 3.92 15.202 15.202 0 0 0-.99 4.32Zm5.92-37.59c.876-1.2 1.573-2.52 2.07-3.92a15.548 15.548 0 0 0 1-4.31 17.003 17.003 0 0 0-3.06 8.23h-.01Zm-51.33-22.34a17.176 17.176 0 0 0 3-8.24 15.842 15.842 0 0 0-2.06 3.92 15.559 15.559 0 0 0-.94 4.34v-.02Zm18.16-48.19a17.063 17.063 0 0 0 3.06-8.24 15.69 15.69 0 0 0-2.07 3.92 15.56 15.56 0 0 0-.99 4.34v-.02ZM232.7 379.16h1.2a14.44 14.44 0 0 0 .75-3.63 15.552 15.552 0 0 0-1.95 3.63Zm-37.27-27.31c.876-1.2 1.573-2.52 2.07-3.92a15.892 15.892 0 0 0 1-4.31 17.075 17.075 0 0 0-3.06 8.23h-.01Zm23.36-109.47a15.01 15.01 0 0 0 2.06-3.92 15.93 15.93 0 0 0 1-4.31 17.003 17.003 0 0 0-3.06 8.23Zm7.84-23.52a17.116 17.116 0 0 0 8-3.66c-1.465.231-2.89.672-4.23 1.31a15.727 15.727 0 0 0-3.77 2.35Zm44.14 101.06a15.794 15.794 0 0 0 4.23-1.31 15.484 15.484 0 0 0 3.76-2.36 17.342 17.342 0 0 0-8 3.67h.01Zm34.9 35.15a17.116 17.116 0 0 0 8-3.66 17.116 17.116 0 0 0-8 3.66Zm-91.22 8.76a17.116 17.116 0 0 0 8-3.66c-1.465.231-2.89.672-4.23 1.31a15.727 15.727 0 0 0-3.77 2.35Zm2.9-55.74a15.815 15.815 0 0 0 4.23-1.32 15.107 15.107 0 0 0 3.75-2.35 17.007 17.007 0 0 0-8 3.67h.02Zm9.28-47.33a17.116 17.116 0 0 0 8-3.66 17.116 17.116 0 0 0-8 3.66Zm57 7a17.198 17.198 0 0 0 3.66 8 17.198 17.198 0 0 0-3.66-8Zm-44.81 77.69a15.794 15.794 0 0 0 1.31 4.23 15.426 15.426 0 0 0 2.36 3.75 17.258 17.258 0 0 0-3.67-8v.02Zm-27.43-68.57c.231 1.466.672 2.89 1.31 4.23a15.667 15.667 0 0 0 2.35 3.76 17.067 17.067 0 0 0-3.66-8v.01Zm61.32 72.56a17.198 17.198 0 0 0 3.66 8 15.421 15.421 0 0 0-1.31-4.23 15.759 15.759 0 0 0-2.35-3.77Zm35.12-37.55c.231 1.466.672 2.89 1.31 4.23a15.648 15.648 0 0 0 2.35 3.76 15.488 15.488 0 0 0-1.31-4.24 15.922 15.922 0 0 0-2.35-3.75Zm-47.78-21a15.794 15.794 0 0 0 1.31 4.23 16.003 16.003 0 0 0 2.35 3.76 15.154 15.154 0 0 0-1.31-4.24 15.586 15.586 0 0 0-2.35-3.72v-.03Zm-17.58-54.79a15.794 15.794 0 0 0 1.31 4.23 15.426 15.426 0 0 0 2.36 3.75 16.993 16.993 0 0 0-3.67-8v.02Z" fill="#fff"/><path d="M272.75 217.09c41.46 30.55 71.47 57.45 72.47 71 2.26 30.28-13 38.41-15.94 37.74-31-7.13-55.78-62.21-71.86-95.38-15.97-32.97 3.46-22.11 15.33-13.36Z" fill="#FFC4C0"/><path d="M331.62 260.63 286.36 291s-23.79-40.55-33-65.3 1.07-25 25.36-7.33 52.9 42.26 52.9 42.26Z" fill="#FF7A0E"/><path d="M271 243.55a15.545 15.545 0 0 0-4.32-1 17.174 17.174 0 0 0 8.24 3.05 15.495 15.495 0 0 0-3.92-2.05Zm-13.9-20.83a15.176 15.176 0 0 0-1 4.32 17.174 17.174 0 0 0 3.05-8.24 15.656 15.656 0 0 0-2.08 3.92h.03Zm63.59 38.74a15.176 15.176 0 0 0-1 4.32 17.174 17.174 0 0 0 3.05-8.24 15.656 15.656 0 0 0-2.08 3.92h.03Zm-35.21-38.08c-.19.42-.37.84-.53 1.26a15.545 15.545 0 0 0-1 4.32A15.533 15.533 0 0 0 286 225c.12-.327.23-.66.33-1l-.85-.62Zm13.42 26.1a15.389 15.389 0 0 0-3.75 2.35 17.116 17.116 0 0 0 8-3.66 15.425 15.425 0 0 0-4.28 1.31h.03Zm-12.89 22a15.436 15.436 0 0 0-2.35-3.76 17.198 17.198 0 0 0 3.66 8 15.301 15.301 0 0 0-1.32-4.2l.01-.04Z" fill="#fff"/><path d="M321.12 254.25c-17.22 14.16-34.29 23.92-37.66 26.31-.16.11-.33-.16-.16-.27 3.44-2.17 21.87-16.19 37.65-26.33.18-.12.34.15.17.29Z" fill="#263238"/><path d="M289.26 289c-.945.442-1.864.939-2.75 1.49-5.23-8.69-4.25-6.68-9.56-15.33-2.6-4.233-5.2-8.47-7.8-12.71-2.7-4.41-5.17-9-8.11-13.28-.08-.13-.25 0-.19.12 1.83 4.23 4.19 8.28 6.44 12.33-.48-.62-.93-1.26-1.45-1.85-1.15-1.32-2.28-2.65-3.32-4.06-.16-.22-.52 0-.36.22 1 1.34 1.89 2.74 2.77 4.16.88 1.42 1.86 2.77 2.85 4.12s2 2.54 3 3.78l.38.46c1.44 2.52 2.84 5.07 4.33 7.57 5.24 8.74 10.46 15.53 10.62 15.48a25.491 25.491 0 0 0 3.28-2.25c.14-.16 0-.32-.13-.25Z" fill="#263238"/><path d="M324.52 322.89c-5.39-12.6-10.06-29.86 9.25-80.61 2.67-7 57.31-1.51 54.85 6.14-3.11 9.63-17.26 46.34-18.64 48.89-11.58 21.54-41.81 34.13-45.46 25.58Z" fill="#FFC4C0"/><path d="M321.08 312.59c-.38-4.11-.46-8.21-.44-12.31 0-2 .08-4.09.17-6.13.09-2.04.36-4 .64-6.07.6-4 1.34-8.08 2.15-12.11.81-4.03 1.67-8.05 2.73-12a93.584 93.584 0 0 0-3.81 11.79c-1 4-1.89 8-2.52 12.15a49.341 49.341 0 0 0-.65 6.22c-.09 2.07-.06 4.15 0 6.22a59.773 59.773 0 0 0 1.73 12.24Z" fill="#263238"/><path d="M345.38 221.44c-8.07 6.9-14.11 27.1-14.11 27.1l52.29 14s7.17-15.6 14.31-21.28c2.08-1.65 12.58-10.73 23.34-18.89 12.2-9.25 23.82-20.52 24.15-22.34.63-3.5-4.61-6.28-14.3-2-9.69 4.28-27.13 15.97-28.36 16.34-.425.09-.856.15-1.29.18-.56-.11-11.74-10.18-18.4-8.76-6.66 1.42-36.65 13.97-37.63 15.65Z" fill="#FFC4C0"/><path d="M388.39 229.21s25.29-5.17 29-9.07c3.71-3.9 29.47-23.89 30.17-27.38.7-3.49-4.61-6.28-14.3-2-9.69 4.28-27.12 15.93-28.36 16.35-1.24.42-23.95 1.3-26 2-2.05.7 9.49 20.1 9.49 20.1Z" fill="#FFC4C0"/><path d="M403 228.31c2.58-1.16 5.11-2.43 7.64-3.69 1.26-.65 2.51-1.31 3.75-2 .62-.35 1.24-.69 1.85-1.07.31-.17.61-.38.92-.58.309-.214.603-.447.88-.7 4.31-3.61 8.63-7.27 12.92-10.94 4.29-3.67 8.54-7.35 12.74-11.19a17.726 17.726 0 0 0 2.79-3.36 8.147 8.147 0 0 0 .93-2 3.644 3.644 0 0 0 0-2.33 2.992 2.992 0 0 0-1.67-1.6 6.492 6.492 0 0 0-2.15-.44c-1.428-.052-2.855.1-4.24.45a17.41 17.41 0 0 1 4.2-.05 6 6 0 0 1 1.94.56 2.3 2.3 0 0 1 1.22 1.34c.36 1.16-.27 2.5-1 3.59a17.549 17.549 0 0 1-2.77 3c-4.32 3.57-8.66 7.23-12.94 10.9-4.28 3.67-8.55 7.38-12.71 11.24a20.942 20.942 0 0 1-3.36 2.38c-1.19.75-2.41 1.46-3.62 2.18l-7.32 4.31Z" fill="#263238"/><path d="M383.41 226.18s27.69-5.78 31.39-9.67c3.7-3.89 29.46-23.9 30.17-27.38.71-3.48-4.62-6.29-14.3-2s-27.13 15.92-28.37 16.35c-1.24.43-23.07 3.55-25.14 4.26-2.07.71 6.25 18.44 6.25 18.44Z" fill="#FFC4C0"/><path d="M397.91 227.05c3.09-1.57 6.12-3.26 9.16-5 1.5-.87 3-1.75 4.47-2.67.74-.45 1.48-.92 2.21-1.42a19.687 19.687 0 0 0 2.09-1.64c5.253-4.5 10.487-9.037 15.7-13.61l7.77-6.91 1.93-1.75a21.07 21.07 0 0 0 1.9-1.88 10.887 10.887 0 0 0 1.54-2.28c.48-.879.662-1.889.52-2.88a2.702 2.702 0 0 0-.76-1.42 3.557 3.557 0 0 0-1.29-.78 8.21 8.21 0 0 0-2.74-.39c-1.766.049-3.52.297-5.23.74a30.15 30.15 0 0 0-9.51 4.24 32.056 32.056 0 0 1 9.67-3.53c1.664-.35 3.36-.525 5.06-.52a6.996 6.996 0 0 1 2.37.43 1.882 1.882 0 0 1 1.31 1.43 3.525 3.525 0 0 1-.51 2.12 10.33 10.33 0 0 1-1.41 2c-1.1 1.19-2.5 2.29-3.78 3.44l-7.83 6.83c-5.2 4.58-10.4 9.16-15.51 13.85a18.488 18.488 0 0 1-1.93 1.65c-.68.5-1.39 1-2.1 1.48-1.43 1-2.88 1.91-4.34 2.84l-8.76 5.63Z" fill="#263238"/><path d="M383.79 227s22.87-10.64 26.31-14.27c3.44-3.63 21.89-16.18 22.55-19.42.66-3.24-4.3-5.85-13.32-1.86-9.02 3.99-19.71 8.76-20.86 9.16-1.15.4-19.38 6.47-21.31 7.13-1.93.66 6.63 19.26 6.63 19.26Z" fill="#FFC4C0"/><path d="M390.76 226.05c3.92-2.13 7.81-4.33 11.7-6.51 2-1.09 3.88-2.2 5.81-3.33l1.45-.85c.494-.303.968-.637 1.42-1a67.5 67.5 0 0 0 2.64-2.1c3.43-2.87 6.8-5.81 10.06-8.87 1.63-1.52 3.25-3.07 4.84-4.65.79-.79 1.58-1.59 2.35-2.42a20.63 20.63 0 0 0 2.22-2.68 2.817 2.817 0 0 0 .41-2.13 2.91 2.91 0 0 0-1.33-1.7 8.327 8.327 0 0 0-3.49-1.06 14.428 14.428 0 0 0-6.91.94c-4.16 1.7-8.24 3.48-12.34 5.25s-8.23 3.59-12.21 5.4c-2.05.81-4.16 1.57-6.25 2.33s-4.18 1.59-6.25 2.45c4.36-1.06 8.64-2.26 12.94-3.59l12.32-5.31c4.1-1.74 8.22-3.5 12.34-5.14a13.292 13.292 0 0 1 6.21-.89 7.07 7.07 0 0 1 2.87.83 1.228 1.228 0 0 1 .735 1.391 1.23 1.23 0 0 1-.245.509 22.162 22.162 0 0 1-2 2.47c-.74.81-1.52 1.61-2.3 2.4-1.55 1.58-3.15 3.13-4.77 4.66-3.24 3.05-6.47 6.12-9.83 9a74 74 0 0 1-2.55 2.14 27.015 27.015 0 0 1-2.73 1.83l-5.7 3.51-11.41 7.12Z" fill="#263238"/><path d="M159.7 330.86c6-12.29 11.61-29.28-5-81-2.3-7.15-57.15-4.52-55.09 3.24 2.59 9.79 14.78 47.19 16 49.81 10.46 22.09 39.99 36.29 44.09 27.95Z" fill="#FFC4C0"/><path d="M163.67 320.76a59.19 59.19 0 0 0 2.33-12.18c.18-2.06.33-4.13.35-6.21a51.834 51.834 0 0 0-.32-6.24c-.419-4.12-1.05-8.215-1.89-12.27a93.24 93.24 0 0 0-3.17-12c.84 4 1.48 8.1 2.09 12.16.61 4.06 1.12 8.14 1.5 12.22.18 2 .34 4.07.33 6.09-.01 2.02-.06 4.09-.16 6.13-.16 4.12-.47 8.21-1.06 12.3Z" fill="#263238"/><path d="M147.15 227.65C153.75 236 156 254 156 254l-54.21 6.66s-4.06-16.68-10-23.62c-1.72-2-10.3-12.93-19.29-23-10.21-11.42-19.46-24.7-19.43-26.55.05-3.55 5.72-5.28 14.41.78 8.69 6.06 23.59 20.82 24.71 21.47.403.169.817.31 1.24.42.58 0 13.48-7.75 19.74-5.08 6.26 2.67 33.35 20.74 33.98 22.57Z" fill="#FFC4C0"/><path d="M103.45 227.05s-23.83-9.91-26.71-14.45c-2.88-4.54-24.35-29.08-24.38-32.6-.03-3.52 5.73-5.29 14.42.77 8.69 6.06 23.58 20.82 24.71 21.48 1.13.66 23.26 5.85 25.15 6.95 1.89 1.1-13.19 17.85-13.19 17.85Z" fill="#FFC4C0"/><path d="M89.24 223.37c-2.31-1.64-4.54-3.37-6.79-5.09-1.11-.87-2.21-1.77-3.3-2.68-.54-.46-1.08-.92-1.61-1.4-.27-.23-.53-.5-.79-.75-.259-.27-.503-.553-.73-.85-3.54-4.37-7.08-8.79-10.59-13.21-3.51-4.42-7-8.86-10.37-13.43a18.346 18.346 0 0 1-2.06-3.82 7.91 7.91 0 0 1-.52-2.17c-.1-.793.06-1.597.46-2.29a2.999 2.999 0 0 1 2-1.25 6.442 6.442 0 0 1 2.19 0c1.408.226 2.778.647 4.07 1.25a17.809 17.809 0 0 0-4.11-.85 5.839 5.839 0 0 0-2 .18 2.233 2.233 0 0 0-1.45 1.08c-.58 1.07-.22 2.51.31 3.72a16.984 16.984 0 0 0 2.05 3.47c3.55 4.33 7.11 8.76 10.61 13.18 3.5 4.42 7 8.87 10.33 13.46a20.818 20.818 0 0 0 2.83 3c1 1 2.09 1.89 3.14 2.83l6.33 5.62Z" fill="#263238"/><path d="M108.92 225s-26.08-11-29-15.5C77 205 55.57 180.41 55.54 176.86c-.03-3.55 5.73-5.29 14.42.77 8.69 6.06 23.58 20.82 24.71 21.47 1.13.65 22 7.9 23.87 9 1.87 1.1-9.62 16.9-9.62 16.9Z" fill="#FFC4C0"/><path d="M94.52 223.11c-2.74-2.14-5.39-4.37-8-6.61a159.92 159.92 0 0 1-3.88-3.47c-.64-.6-1.28-1.2-1.9-1.82a20.3 20.3 0 0 1-1.74-2 2102.261 2102.261 0 0 1-12.8-16.37l-6.31-8.26-1.56-2.09a19.902 19.902 0 0 1-1.5-2.21 10.716 10.716 0 0 1-1.08-2.53 4.67 4.67 0 0 1 0-2.93c.203-.506.55-.941 1-1.25a3.638 3.638 0 0 1 1.42-.52 8.123 8.123 0 0 1 2.75.14 23.66 23.66 0 0 1 5 1.73 30.185 30.185 0 0 1 8.52 6 31.905 31.905 0 0 0-8.81-5.31 23.947 23.947 0 0 0-4.87-1.48 7.016 7.016 0 0 0-2.41 0 1.877 1.877 0 0 0-1.56 1.16 3.61 3.61 0 0 0 .09 2.17c.25.771.586 1.512 1 2.21.85 1.38 2 2.73 3.06 4.1l6.37 8.21c4.23 5.49 8.46 11 12.58 16.56.476.702 1 1.371 1.57 2 .58.63 1.18 1.25 1.79 1.86 1.21 1.22 2.46 2.42 3.71 3.62l7.56 7.09Z" fill="#263238"/><path d="M108.39 225.76s-20.42-14.82-23.1-19c-2.68-4.18-18.39-20.1-18.41-23.41-.02-3.31 5.33-4.93 13.42.72 8.09 5.65 17.7 12.37 18.7 12.98 1 .61 17.8 10 19.56 11.07 1.76 1.07-10.17 17.64-10.17 17.64Z" fill="#FFC4C0"/><path d="M101.73 223.5c-3.45-2.85-6.84-5.75-10.24-8.64a392.45 392.45 0 0 1-5.07-4.37l-1.26-1.12a14.1 14.1 0 0 1-1.16-1.21c-.76-.84-1.47-1.7-2.18-2.57-2.82-3.47-5.57-7-8.18-10.63-1.31-1.81-2.61-3.64-3.86-5.49-.63-.93-1.25-1.87-1.85-2.83a20.126 20.126 0 0 1-1.66-3.06 2.809 2.809 0 0 1 0-2.17 2.921 2.921 0 0 1 1.58-1.41 8.464 8.464 0 0 1 3.63-.38c2.35.203 4.615.975 6.6 2.25 3.76 2.46 7.42 5 11.11 7.52 3.69 2.52 7.39 5.09 11 7.63 1.86 1.19 3.79 2.33 5.69 3.49 1.9 1.16 3.8 2.35 5.66 3.59-4.07-1.87-8-3.86-12-6l-11.08-7.57c-3.7-2.49-7.4-5-11.13-7.41a13.209 13.209 0 0 0-5.93-2 7.002 7.002 0 0 0-3 .25 1.22 1.22 0 0 0-.84 1.77c.433.978.94 1.921 1.52 2.82.58.94 1.18 1.87 1.8 2.79 1.22 1.85 2.5 3.68 3.79 5.49 2.59 3.62 5.18 7.25 7.92 10.76.68.87 1.37 1.74 2.09 2.58a27.029 27.029 0 0 0 2.32 2.28l4.92 4.54 9.81 9.1Zm157.12-9.85a46.473 46.473 0 0 1-16.22 17.29 23.478 23.478 0 0 1-10.88 3.8 9.723 9.723 0 0 1-5.82-1.23 11.743 11.743 0 0 1-3.78-4.62 24.057 24.057 0 0 1-2.07-6.6 56.946 56.946 0 0 1-.78-7.84c0-.1-.15-.08-.15 0 .08 2.49-.05 5 .21 7.46a25.582 25.582 0 0 0 1.38 6.41 14.674 14.674 0 0 0 3.26 5.24 8.8 8.8 0 0 0 5.63 2.46c4.14.201 8.247-.822 11.81-2.94a39.83 39.83 0 0 0 9.7-7.57 44.22 44.22 0 0 0 7.92-11.78.108.108 0 0 0 .026-.051.11.11 0 0 0 0-.057.113.113 0 0 0-.073-.083c-.018-.007-.038-.01-.057-.007a.114.114 0 0 0-.054.02.113.113 0 0 0-.038.043.118.118 0 0 0-.014.055Z" fill="#263238"/><path d="M228.33 229.22c7.7 2.15 21.52-9.19 27.18-18.61.38-.65-.35-7.64-.84-16.19-.27-5.19-.46-11-.25-16.26.05-1.08-33.49 6.73-33.49 6.73s2.82 11.21 2.39 20.43a11.023 11.023 0 0 1-.32 2.16c0 .1 0 .22-.06.36-.84 4.1-2.05 19.3 5.39 21.38Z" fill="#FFC4C0"/><path d="M226.34 208.15a20.508 20.508 0 0 1-3.39-.31c.012-.121.032-.241.06-.36.174-.708.278-1.432.31-2.16.42-9.21-2.39-20.43-2.39-20.43s27.23-6.34 32.59-6.81c-1.27 6.07-7.6 30.43-27.18 30.07Z" fill="#263238"/><path d="M262 140.78c2.23 12.1-7.8 45.17-17 51.76-13.31 9.54-33.17 8.33-40.79-7.22-7.39-15.08 6.44-57.95 16.52-63.74 14.83-8.52 37.94 1.32 41.27 19.2Z" fill="#FFC4C0"/><path d="M231.49 155.9c0-.08.14.17.11.25-.81 2.19-1.35 4.83.4 6.23.06 0 0 .15-.06.11-2.32-1.15-1.56-4.64-.45-6.59Z" fill="#263238"/><path d="M234.23 154.25c3.64.9 1.56 8.13-1.81 7.29-3.37-.84-1.25-8.05 1.81-7.29ZM218 151.53c0-.09-.2.06-.23.15-.57 2.26-1.61 4.75-3.84 4.91-.07 0-.1.12 0 .13 2.5.36 3.84-2.96 4.07-5.19Z" fill="#263238"/><path d="M216.63 148.62c-3.52-1.31-5.88 5.83-2.62 7s5.57-5.9 2.62-7Zm20.81 6.23a28.31 28.31 0 0 1-2.84-1.2 4.995 4.995 0 0 1-2.67-1.78 1.583 1.583 0 0 1 .38-1.9c1.18-.93 2.66-.68 4-.16a5.782 5.782 0 0 1 3.17 2.7 1.692 1.692 0 0 1-1.071 2.359 1.692 1.692 0 0 1-.969-.019Zm-21.13-13.94c1.027.095 2.059.135 3.09.12a4.999 4.999 0 0 0 3.17-.48 1.59 1.59 0 0 0 .46-1.89c-.68-1.34-2.12-1.74-3.54-1.83a5.758 5.758 0 0 0-4 1.1 1.694 1.694 0 0 0-.051 2.573c.245.217.547.359.871.407Zm6.22 37.87a3.5 3.5 0 0 1-2.25.74 6.228 6.228 0 0 1-2.2-1.27c-.06-.05-.16 0-.13.08a3.105 3.105 0 0 0 2.44 2 2.485 2.485 0 0 0 2.33-1.43c.07-.07-.09-.17-.19-.12Z" fill="#263238"/><path d="M224.35 174.9c-2.55-2-6.35-2.71-8.78-3.11-.25-.11-.34-.7-.31-1 0-.09 1.56-4.76 1.56-4.76-.73.13-4.37.63-4.05-.25 2.64-7.34 5.58-15.5 9.76-22.24a.22.22 0 0 1 .39.18c-2.26 7.15-5.76 13.86-8.15 21a13.984 13.984 0 0 1 3.93 0c.22.14-1.91 4.95-2.06 5.74 0 0 5 0 8 3.46.82.9.92 1.92-.29.98ZM213 128.56c9.58 11.61 29.47 3.92 29.47 3.92a13.507 13.507 0 0 0 10.81 12s-3.45 20.88 1.88 22.37c8.13 2.28 18.55-24.55 17.55-30.7-1-6.15-7.49-9.51-7.49-9.51s.7-4.35-3.22-9.62c-4.32-5.84-25.09-5.62-25.09-5.62a18.494 18.494 0 0 0-3-8 5.208 5.208 0 0 0-3.408-2.293 5.228 5.228 0 0 0-4.012.883 12.42 12.42 0 0 1 .52 5.54c-.74 6.19-5.57 4.8-4-.55a8.726 8.726 0 0 1 3.47-5c-1.37-4.19-4.94-6.45-7.84-5.25-5.3 2.17-13.64 22.18-5.64 31.83Z" fill="#263238"/><path d="M256.22 138.42a.28.28 0 0 1 .069-.08.312.312 0 0 1 .095-.047.276.276 0 0 1 .333.191.276.276 0 0 1-.027.206 54.3 54.3 0 0 0-4.69 11.95c-.91 4.15-1.69 15 4.51 15.51a.242.242 0 0 1 .191.235.237.237 0 0 1-.054.151.238.238 0 0 1-.137.084c-4.39.75-5.63-5-5.91-8.78-.54-6.84 2.25-13.6 5.62-19.42ZM219 96.54v.07c-8.45 6.09-13.16 16.85-9.95 27.14 4 12.94 20.52 10.08 30.49 7.92.49-.11.72.63.23.75-9.77 2.37-26.4 4.84-31-7.2-4.14-10.73.96-22.64 10.23-28.68Zm44.47 29.58c7.73 3.14 12.35 8.55 10.71 17.22a32.074 32.074 0 0 1-15.06 21 .329.329 0 0 1-.418-.13.33.33 0 0 1 .078-.43c5.54-4 10.2-8.83 12.88-15.23 2-4.73 3-10.36.62-15.16-1.69-3.46-5.73-5.33-9-7-.15-.08 0-.34.19-.27ZM234 112.43c11.7-3.24 33.06-3.36 31.13 14.07 0 .14-.26.12-.25 0 1-17.74-19.2-15.44-30.8-13.57-.29.07-.35-.43-.08-.5Z" fill="#263238"/><path d="M253.18 167.31s9.08-9.87 13.66-6.49c4.58 3.38-3.27 18.41-9.37 19.79a5.996 5.996 0 0 1-6.431-2.103 5.992 5.992 0 0 1-1.049-2.137l3.19-9.06Z" fill="#FFC4C0"/><path d="M264.48 165.07c.021 0 .042.008.057.023a.081.081 0 0 1 .023.057.081.081 0 0 1-.023.057.081.081 0 0 1-.057.023c-4.29 1.1-6.94 4.59-9 8.3 1.42-1.34 3.18-1.95 5-.23.1.09 0 .24-.14.2a3.682 3.682 0 0 0-4.17.73 17.685 17.685 0 0 0-2.34 3c-.24.34-.87.06-.68-.34a.44.44 0 0 1 .05-.09c.63-5.23 5.64-11.95 11.28-11.73Z" fill="#263238"/><path d="M264 451.47c-.07.41-.15.82-.23 1.24.07-.41.15-.83.22-1.24h.01Z" fill="#EBEBEB"/><path d="M294.58 107.34a7.304 7.304 0 0 1-4.499 6.751 7.299 7.299 0 0 1-9.546-9.532 7.302 7.302 0 0 1 6.745-4.509 7.298 7.298 0 0 1 7.3 7.29Z" fill="#fff"/><path d="M294.58 107.34a7.552 7.552 0 0 1-12.974 5.258 7.546 7.546 0 0 1-1.478-8.312 7.552 7.552 0 0 1 7.152-4.486 7.57 7.57 0 0 1 7.3 7.54Zm0 0a7.052 7.052 0 0 0-13.53-2.774 7.046 7.046 0 0 0 7.019 9.806 7.049 7.049 0 0 0 4.321-1.922 7.1 7.1 0 0 0 2.19-5.11Z" fill="#263238"/><path d="M349.76 68.07a34.721 34.721 0 0 1-59.253 24.578 34.724 34.724 0 0 1 5.213-53.417 34.722 34.722 0 0 1 54.04 28.839Z" fill="#fff"/><path d="M349.76 68.07a34.86 34.86 0 0 1-10.12 24.6A35 35 0 1 1 315 33.1a34.92 34.92 0 0 1 24.6 10.37 34.756 34.756 0 0 1 10.12 24.6h.04Zm0 0a34.466 34.466 0 0 0-21.482-31.92A34.473 34.473 0 0 0 315 33.61a34.459 34.459 0 1 0 24.5 59 34.698 34.698 0 0 0 10.22-24.49l.04-.05Z" fill="#263238"/><path d="M277.69 119.37a4.063 4.063 0 0 1-2.506 3.751 4.06 4.06 0 1 1 2.506-3.751Z" fill="#fff"/><path d="M277.69 119.37a4.328 4.328 0 0 1-4.06 4.31 4.415 4.415 0 0 1-3.18-1.14 4.313 4.313 0 0 1-1.342-3.892 4.317 4.317 0 0 1 2.529-3.249 4.317 4.317 0 0 1 4.103.345 4.321 4.321 0 0 1 1.95 3.626Zm0 0a3.809 3.809 0 0 0-4.06-3.81 3.818 3.818 0 0 0-3.474 4.705 3.814 3.814 0 0 0 3.059 2.871 3.822 3.822 0 0 0 3.849-1.668 3.824 3.824 0 0 0 .626-2.098Z" fill="#263238"/><path d="M308.42 75a12.687 12.687 0 0 1 .88-4.83 8.042 8.042 0 0 1 3.63-3.74c.55-.33 1.22-.71 2-1.13a15.96 15.96 0 0 0 2.36-1.51 8.49 8.49 0 0 0 1.95-2.06 4.772 4.772 0 0 0 .8-2.72 4.548 4.548 0 0 0-.44-2 4.616 4.616 0 0 0-2.83-2.39 6.5 6.5 0 0 0-1.95-.3 5.743 5.743 0 0 0-2.2.41 7.821 7.821 0 0 0-1.78 1 9.16 9.16 0 0 0-1.43 1.43c-.386.482-.743.987-1.07 1.51l-4.78-3.29a10.694 10.694 0 0 1 1.89-3 11.796 11.796 0 0 1 2.7-2.23 12.555 12.555 0 0 1 3.26-1.37 14.218 14.218 0 0 1 3.63-.47c1.395 0 2.782.202 4.12.6a10.503 10.503 0 0 1 3.65 1.93 10.01 10.01 0 0 1 2.64 3.38 12.205 12.205 0 0 1 .61 8 8.541 8.541 0 0 1-1.19 2.44 10.293 10.293 0 0 1-1.81 2 20.55 20.55 0 0 1-2.36 1.7c-.73.44-1.47.86-2.2 1.27a13.12 13.12 0 0 0-2 1.34 6.654 6.654 0 0 0-1.49 1.7 4.523 4.523 0 0 0-.57 2.34l-6.02-.01Zm.11 12.8v-7.56h6.1v7.58l-6.1-.02Z" fill="#FF7A0E"/></svg>